<svg width="2720" height="12649" viewBox="0 0 2720 12649" fill="none" xmlns="http://www.w3.org/2000/svg">
<rect width="2720" height="12649" fill="#032300"/>
<path d="M1476 8998C1476 9089 1476 9180.5 1511 9219C1539 9249.8 1548 9299 1551 9326.5V9867C1551 10085 1542 10230.5 1730.5 10378.5C1822.23 10450.5 1937.5 10554 1937.5 10736.5C1937.5 11039.7 1938.33 12019.5 1937.5 12056.8" stroke="#4D4D4D" stroke-width="73"/>
<path d="M1521 10032.5V9321.5" stroke="white" stroke-width="6" stroke-dasharray="20.17 20.17"/>
<path d="M1476 4382C1476 4291 1476 4199.5 1511 4161C1539 4130.2 1548 4081 1551 4053.5V3513C1551 3295 1542 3149.5 1730.5 3001.5C1822.23 2929.48 1937.5 2826 1937.5 2643.5C1937.5 2340.29 1938.33 940.833 1937.5 903.5" stroke="#4D4D4D" stroke-width="73"/>
<path d="M1521 3347.5V4058.5" stroke="white" stroke-width="6" stroke-dasharray="20.17 20.17"/>
<path d="M1327 12598V75.5948" stroke="#4D4D4D" stroke-width="113"/>
<path d="M1327 12598V64" stroke="white" stroke-width="5" stroke-dasharray="27 27"/>
<path d="M1460 12598V75.5948" stroke="#4D4D4D" stroke-width="113"/>
<path d="M1460 12598V64" stroke="white" stroke-width="5" stroke-dasharray="27 27"/>
</svg>
