<?xml version="1.0" encoding="UTF-8" standalone="no"?>
<!-- Created with Inkscape (http://www.inkscape.org/) -->

<svg
   width="1486.7505mm"
   height="689.48639mm"
   viewBox="0 0 1486.7504 689.4864"
   version="1.1"
   id="svg1"
   inkscape:version="1.4.2 (f4327f4, 2025-05-13)"
   sodipodi:docname="Thumbnail.svg"
   xmlns:inkscape="http://www.inkscape.org/namespaces/inkscape"
   xmlns:sodipodi="http://sodipodi.sourceforge.net/DTD/sodipodi-0.dtd"
   xmlns="http://www.w3.org/2000/svg"
   xmlns:svg="http://www.w3.org/2000/svg">
  <sodipodi:namedview
     id="namedview1"
     pagecolor="#ffffff"
     bordercolor="#000000"
     borderopacity="0.25"
     inkscape:showpageshadow="2"
     inkscape:pageopacity="0.0"
     inkscape:pagecheckerboard="0"
     inkscape:deskcolor="#d1d1d1"
     inkscape:document-units="mm"
     inkscape:zoom="1.9477379"
     inkscape:cx="2289.0657"
     inkscape:cy="1742.7909"
     inkscape:window-width="3840"
     inkscape:window-height="2054"
     inkscape:window-x="-11"
     inkscape:window-y="-11"
     inkscape:window-maximized="1"
     inkscape:current-layer="layer1" />
  <defs
     id="defs1">
    <mask
       maskUnits="userSpaceOnUse"
       id="mask248">
      <path
         style="fill:#484d71;fill-opacity:1;stroke:#000000;stroke-width:0;stroke-dasharray:none;stroke-opacity:1"
         d="M 195.09349,211.31953 94.488312,230.04044 64.513701,191.89933 173.16787,182.88745 Z"
         id="path249"
         sodipodi:nodetypes="ccccc" />
    </mask>
    <mask
       maskUnits="userSpaceOnUse"
       id="mask248-5">
      <path
         style="fill:#484d71;fill-opacity:1;stroke:#000000;stroke-width:0;stroke-dasharray:none;stroke-opacity:1"
         d="M 195.09349,211.31953 94.488312,230.04044 64.513701,191.89933 173.16787,182.88745 Z"
         id="path249-1"
         sodipodi:nodetypes="ccccc" />
    </mask>
    <mask
       maskUnits="userSpaceOnUse"
       id="mask248-5-8">
      <path
         style="fill:#484d71;fill-opacity:1;stroke:#000000;stroke-width:0;stroke-dasharray:none;stroke-opacity:1"
         d="M 195.09349,211.31953 94.488312,230.04044 64.513701,191.89933 173.16787,182.88745 Z"
         id="path249-1-8"
         sodipodi:nodetypes="ccccc" />
    </mask>
  </defs>
  <g
     inkscape:label="Layer 1"
     inkscape:groupmode="layer"
     id="layer1"
     transform="translate(389.94955,949.36768)">
    <rect
       style="fill:#7ea16a;fill-opacity:1;stroke:#bca6bd;stroke-width:0;stroke-linecap:round"
       id="rect11"
       width="1486.7505"
       height="689.48639"
       x="-389.94955"
       y="-949.36768"
       rx="6.5904245"
       ry="11.120512" />
    <rect
       style="fill:#aeaeaa;fill-opacity:1;stroke:#bca6bd;stroke-width:0;stroke-linecap:round"
       id="rect9"
       width="1486.7505"
       height="469.54858"
       x="-389.94955"
       y="-839.3988"
       rx="6.5904245"
       ry="7.573204" />
    <rect
       style="fill:#4f4f4c;fill-opacity:1;stroke:#bca6bd;stroke-width:0;stroke-linecap:round"
       id="rect10"
       width="1486.7505"
       height="285.38074"
       x="-389.94955"
       y="-747.31488"
       rx="6.5904245"
       ry="4.6028185" />
    <rect
       style="fill:#82827c;fill-opacity:1;stroke:#bca6bd;stroke-width:0;stroke-linecap:round"
       id="rect8"
       width="1486.7505"
       height="266.96396"
       x="-389.94955"
       y="-738.10657"
       rx="6.5904245"
       ry="4.3057799" />
    <rect
       style="fill:#ffffff;fill-opacity:1;stroke:#bca6bd;stroke-width:0;stroke-linecap:round"
       id="rect1"
       width="124.82486"
       height="25.155615"
       x="231.40776"
       y="-614.33478"
       rx="4.2685423"
       ry="3.4149451" />
    <rect
       style="fill:#ffffff;fill-opacity:1;stroke:#bca6bd;stroke-width:0;stroke-linecap:round"
       id="rect2"
       width="124.82486"
       height="25.155615"
       x="231.40776"
       y="-579.44153"
       rx="4.2685423"
       ry="3.4149451" />
    <rect
       style="fill:#ffffff;fill-opacity:1;stroke:#bca6bd;stroke-width:0;stroke-linecap:round"
       id="rect3"
       width="124.82486"
       height="25.155615"
       x="231.40776"
       y="-543.60596"
       rx="4.2685423"
       ry="3.4149451" />
    <rect
       style="fill:#ffffff;fill-opacity:1;stroke:#bca6bd;stroke-width:0;stroke-linecap:round"
       id="rect4"
       width="124.82486"
       height="25.155615"
       x="231.40776"
       y="-509.33841"
       rx="4.2685423"
       ry="3.4149451" />
    <rect
       style="fill:#ffffff;fill-opacity:1;stroke:#bca6bd;stroke-width:0;stroke-linecap:round"
       id="rect5"
       width="124.82486"
       height="25.155615"
       x="231.40776"
       y="-717.38965"
       rx="4.2685423"
       ry="3.4149451" />
    <rect
       style="fill:#ffffff;fill-opacity:1;stroke:#bca6bd;stroke-width:0;stroke-linecap:round"
       id="rect6"
       width="124.82486"
       height="25.155615"
       x="231.40776"
       y="-683.36298"
       rx="4.2685423"
       ry="3.4149451" />
    <rect
       style="fill:#ffffff;fill-opacity:1;stroke:#bca6bd;stroke-width:0;stroke-linecap:round"
       id="rect7"
       width="124.82486"
       height="25.155615"
       x="231.40776"
       y="-649.45715"
       rx="4.2685423"
       ry="3.4149451" />
    <ellipse
       style="fill:#f8e4f6;fill-opacity:1;stroke:#000000;stroke-width:0;stroke-dasharray:none;stroke-opacity:1"
       id="ellipse40"
       cx="22.941275"
       cy="550.51276"
       rx="4.1383829"
       ry="4.5913363"
       transform="matrix(0.87544389,0.48331976,0.4244677,-0.90544308,0,0)" />
    <path
       style="fill:#769bdc;fill-opacity:1;stroke:#000000;stroke-width:0;stroke-dasharray:none;stroke-opacity:1"
       d="m 186.65107,-517.99538 6.93748,-2.49511 7.96879,-0.29517 -6.89407,5.10127 z"
       id="path42"
       inkscape:transform-center-x="1.2901386"
       inkscape:transform-center-y="-5.9922907" />
    <ellipse
       style="fill:#f8e4f6;fill-opacity:1;stroke:#000000;stroke-width:0;stroke-dasharray:none;stroke-opacity:1"
       id="ellipse43"
       cx="273.50262"
       cy="-472.36124"
       rx="6.3968792"
       ry="9.8388996"
       transform="matrix(0.98292766,-0.18399241,0.1569776,0.98760216,0,0)"
       inkscape:transform-center-x="0.71115908"
       inkscape:transform-center-y="-4.5846381" />
    <path
       style="fill:#9eb8e6;fill-opacity:1;stroke:#000000;stroke-width:0;stroke-dasharray:none;stroke-opacity:1"
       d="m 186.65107,-517.99538 c 0,0 5.17824,0.70595 7.71268,0.23147 2.53381,-0.47438 7.19359,-3.02175 7.19359,-3.02175 0,0 1.61442,9.10988 1.1558,13.65281 -0.2541,2.517 -0.0177,6.1692 -2.13437,7.23446 -1.63402,0.82234 -8.82532,-1.67571 -11.46088,-5.12989 -2.59378,-3.39944 -2.46682,-12.9671 -2.46682,-12.9671 z"
       id="path43"
       sodipodi:nodetypes="cacasac"
       inkscape:transform-center-x="0.67173934"
       inkscape:transform-center-y="1.9794913" />
    <path
       style="fill:#769bdc;fill-opacity:1;stroke:#000000;stroke-width:0;stroke-dasharray:none;stroke-opacity:1"
       d="m 188.67216,-514.30763 c 0,0 -0.1001,5.83659 1.46776,7.92662 1.67967,2.23909 7.34351,3.39352 7.34351,3.39352 0,0 -4.29139,-1.90029 -5.77041,-3.72254 -1.68171,-2.07197 -3.04086,-7.5976 -3.04086,-7.5976 z"
       id="path44"
       sodipodi:nodetypes="cacac"
       inkscape:transform-center-x="2.3171922"
       inkscape:transform-center-y="3.5951745" />
    <ellipse
       style="fill:#fcf5fc;fill-opacity:1;stroke:#000000;stroke-width:0;stroke-dasharray:none;stroke-opacity:1"
       id="ellipse44"
       cx="468.37399"
       cy="-267.05524"
       rx="1.7473952"
       ry="0.83901685"
       transform="matrix(0.75025433,-0.66114933,0.59912195,0.80065779,0,0)"
       inkscape:transform-center-x="3.9933828"
       inkscape:transform-center-y="-11.242258" />
    <path
       style="fill:#769bdc;fill-opacity:1;stroke:#000000;stroke-width:0;stroke-dasharray:none;stroke-opacity:1"
       d="m 202.86849,-464.87853 -5.99787,-4.532 -4.99297,-6.74628 7.89448,2.93259 z"
       id="path285" />
    <ellipse
       style="fill:#f8e4f6;fill-opacity:1;stroke:#000000;stroke-width:0;stroke-dasharray:none;stroke-opacity:1"
       id="ellipse284"
       cx="161.00549"
       cy="473.8414"
       rx="6.6426997"
       ry="9.502821"
       transform="matrix(-0.69792157,-0.7161742,0.65694174,-0.75394134,0,0)" />
    <path
       style="fill:#9eb8e6;fill-opacity:1;stroke:#000000;stroke-width:0;stroke-dasharray:none;stroke-opacity:1"
       d="m 202.86849,-464.87853 c 0,0 -2.58221,-4.9218 -4.45098,-6.83934 -1.8683,-1.91708 -6.53986,-4.43894 -6.53986,-4.43894 0,0 5.75308,-6.86155 9.37928,-9.18541 2.00911,-1.28751 4.56169,-3.6815 6.61598,-2.48086 1.58581,0.92683 4.05227,8.67145 3.08339,13.03104 -0.95352,4.2905 -8.08781,9.91351 -8.08781,9.91351 z"
       id="path284"
       sodipodi:nodetypes="cacasac" />
    <path
       style="fill:#769bdc;fill-opacity:1;stroke:#000000;stroke-width:0;stroke-dasharray:none;stroke-opacity:1"
       d="m 204.37789,-468.84426 c 0,0 4.36571,-3.41054 4.96804,-6.02509 0.64528,-2.80101 -1.89705,-8.41345 -1.89705,-8.41345 0,0 1.16969,4.86702 0.71167,7.24393 -0.52078,2.70264 -3.78266,7.19461 -3.78266,7.19461 z"
       id="path286"
       sodipodi:nodetypes="cacac" />
    <ellipse
       style="fill:#fcf5fc;fill-opacity:1;stroke:#000000;stroke-width:0;stroke-dasharray:none;stroke-opacity:1"
       id="path287"
       cx="-85.917557"
       cy="501.24353"
       rx="1.6976844"
       ry="0.86147058"
       transform="matrix(-0.96476656,-0.26310735,0.22560294,-0.97421934,0,0)" />
    <ellipse
       style="fill:#7292cd;fill-opacity:1;stroke:#000000;stroke-width:0;stroke-dasharray:none;stroke-opacity:1"
       id="ellipse42"
       cx="-342.21008"
       cy="-388.6004"
       rx="23.026756"
       ry="11.455942"
       transform="matrix(0.40347167,0.91499214,-0.8874709,0.46086376,0,0)" />
    <rect
       style="fill:#4c324a;fill-opacity:1;stroke:#000000;stroke-width:0;stroke-dasharray:none;stroke-opacity:1"
       id="rect267"
       width="28.856796"
       height="3.7603207"
       x="229.205"
       y="-420.5679"
       ry="0.25309753"
       transform="matrix(0.89671453,-0.44260936,0,1,0,0)" />
    <path
       id="path27"
       style="fill:#a79b5a;fill-opacity:1;stroke:#4b394c;stroke-width:0;stroke-linecap:round"
       d="m 210.48274,-491.72949 a 4.4923952,5.4454721 40.950353 0 0 -1.06186,-6.73811 4.4923952,5.4454721 40.950353 0 0 -0.63808,-0.27637 l -32.83016,-14.21455 a 1.7381292,2.1068793 40.950366 0 0 -2.66302,0.92934 1.7381292,2.1068793 40.950366 0 0 0.41089,2.60687 l 29.3264,19.70954 1.3e-4,7e-5 a 4.4923952,5.4454721 40.950353 0 0 0.57285,0.38496 4.4923952,5.4454721 40.950353 0 0 6.88285,-2.40175 z" />
    <ellipse
       style="fill:#cf4a73;fill-opacity:1;stroke:#4b394c;stroke-width:0;stroke-linecap:round;stroke-dasharray:none;stroke-opacity:1"
       id="path5"
       cx="179.62468"
       cy="-537.05103"
       rx="20.468491"
       ry="22.212486" />
    <ellipse
       style="fill:#d76b8b;fill-opacity:1;stroke:#4b394c;stroke-width:0;stroke-linecap:round;stroke-dasharray:none;stroke-opacity:1"
       id="circle5"
       cx="183.35631"
       cy="-537.19568"
       rx="16.603592"
       ry="19.319933" />
    <path
       style="fill:#bf62b6;fill-opacity:1;stroke:#000000;stroke-width:0;stroke-dasharray:none;stroke-opacity:1"
       d="m 200.35271,-528.57466 -0.25518,6.25316 1.9302,4.58268 2.55077,-3.1791 z"
       id="path38" />
    <ellipse
       style="fill:#bf62b6;fill-opacity:1;stroke:#000000;stroke-width:0;stroke-dasharray:none;stroke-opacity:1"
       id="path278"
       cx="-342.21008"
       cy="-393.85431"
       rx="24.30998"
       ry="12.636406"
       transform="matrix(0.40347167,0.91499214,-0.8874709,0.46086376,0,0)" />
    <path
       style="fill:#bf62b6;fill-opacity:1;stroke:#000000;stroke-width:0;stroke-dasharray:none;stroke-opacity:1"
       d="m 239.39421,-467.03802 1.64497,-5.70779 -0.78502,-4.71368 -3.11251,2.29497 z"
       id="path275" />
    <path
       d="m 236.93622,-474.79985 c 0.28586,-0.17035 0.56148,-0.34523 0.82471,-0.52461 3.67722,-2.5056 14.50373,-11.74003 14.50373,-11.74003 l 1.67644,2.53737 c 0,0 -6.44818,10.11273 -11.39247,16.01323 -0.0345,0.0413 -3.23391,1.25767 -3.26954,1.29822 -0.74376,-0.47696 -1.50007,-5.76219 -2.3429,-7.5842 z"
       style="fill:#f8e4f6;stroke:#000000;stroke-width:0"
       id="path276"
       sodipodi:nodetypes="cccccccc" />
    <path
       d="m 240.25416,-477.45949 c -0.81509,2.26474 -1.21648,4.67055 -1.18309,7.09104 0.0155,1.11801 0.12358,2.23236 0.32314,3.33043 -7.77889,-0.24881 -14.2621,-11.75748 -14.2621,-11.75748 l 0.52729,-8.15024 c 0,0 8.0244,6.95144 14.59476,9.48625 z"
       style="fill:#cc83c5;fill-opacity:1;stroke:#000000;stroke-width:0"
       id="path277"
       sodipodi:nodetypes="cscccc" />
    <ellipse
       style="fill:#cb83c6;fill-opacity:1;stroke:#000000;stroke-width:0;stroke-dasharray:none;stroke-opacity:1"
       id="ellipse38"
       cx="-343.62155"
       cy="-391.07654"
       rx="17.449995"
       ry="7.655591"
       transform="matrix(0.40347167,0.91499214,-0.8874709,0.46086376,0,0)" />
    <path
       d="m 206.20953,-522.91864 c -0.14304,0.3317 -0.27478,0.66031 -0.39349,0.98427 -1.65833,4.52578 -5.46811,19.37992 -5.46811,19.37992 l -2.88115,-0.96639 c 0,0 -0.39496,-12.64497 0.37276,-20.81454 0.005,-0.0572 2.77915,-3.70568 2.78583,-3.76291 1.34032,2.47029 3.05819,3.90452 5.58421,5.17964 z"
       style="fill:#f8e4f6;stroke:#000000;stroke-width:0"
       id="path39"
       sodipodi:nodetypes="cccccccc" />
    <path
       d="m 204.36292,-517.47764 c 0.26346,-2.52519 -2.8923,-4.41712 -3.51419,-6.87062 -0.28727,-1.13323 -0.0297,-3.16337 -0.49602,-4.2264 7.83009,-1.85681 17.10383,8.09336 17.10383,8.09336 l 1.45504,8.4349 c 0,0 -7.36981,-4.63452 -14.54866,-5.43124 z"
       style="fill:#cc83c5;fill-opacity:1;stroke:#000000;stroke-width:0"
       id="path40"
       sodipodi:nodetypes="cscccc" />
    <path
       id="path250"
       style="fill:#64492c;fill-opacity:1;stroke:#000000;stroke-width:0;stroke-dasharray:none;stroke-opacity:1"
       d="m 233.91673,-528.13427 c 0,0 -6.18631,1.67308 -9.34711,1.74571 -3.80064,0.0873 -11.3111,-1.58082 -11.3111,-1.58082 0,0 2.03167,2.542 3.78154,4.52631 0.38067,1.72132 0.90745,3.75957 1.55744,5.43241 l -11.65069,-0.68566 c 0,0 6.01117,6.82923 10.09906,9.26997 -0.78118,0.42343 -1.46293,0.90642 -1.93765,1.45056 -1.93011,2.21238 -2.5477,8.71151 -2.5477,8.71151 0,0 5.17287,-2.21185 7.81848,-1.84545 1.24776,0.17281 2.80509,0.87862 4.2951,1.71738 -0.26695,0.97632 -0.58833,1.86229 -0.97444,2.54383 -1.3968,2.46562 -6.22923,5.44953 -6.22923,5.44953 0,0 5.05117,3.55533 7.84962,3.31218 -0.98017,4.8319 0.22702,14.84085 0.22702,14.84085 l 8.55222,-12.89127 c 0.22735,0.61831 0.53873,1.28189 0.89942,1.95805 0.002,1.20063 0.0229,2.47899 0.087,3.38697 0.1902,2.69684 1.07537,8.0298 1.07537,8.0298 l 2.79722,-5.45685 0.76131,-1.35935 c 0,0 1.658,-2.773 2.40315,-3.73437 2.03506,-2.62558 7.11665,-6.80393 7.11665,-6.80393 -0.42503,-15.17663 -6.06017,-28.00173 -15.32265,-38.01736 z"
       sodipodi:nodetypes="cscccccscscscccccscccscc" />
    <path
       style="fill:#503a23;fill-opacity:1;stroke:#000000;stroke-width:0;stroke-dasharray:none;stroke-opacity:1"
       d="m 219.06254,-525.20281 3.92809,1.56765 3.65779,0.0245 4.8599,-1.48159 -2.55855,4.11121 -3.099,1.15162 -3.85248,0.47742 -2.07835,-2.36789 -2.74122,-3.78735 z"
       id="path256" />
    <path
       style="fill:#503a23;fill-opacity:1;stroke:#000000;stroke-width:0;stroke-dasharray:none;stroke-opacity:1"
       d="m 234.18091,-500.4451 -2.93144,0.90024 -3.79867,0.76698 -1.14701,2.84347 -1.56116,2.57439 -2.49063,1.05289 1.62072,1.16253 2.78085,-0.56225 2.30698,-4.48487 2.56107,-1.7308 5.64557,-1.24824 z"
       id="path255" />
    <path
       style="fill:#503a23;fill-opacity:1;stroke:#000000;stroke-width:0;stroke-dasharray:none;stroke-opacity:1"
       d="m 215.64781,-502.42579 2.95048,-1.85285 4.7305,-1.33421 2.95638,1.51109 3.1522,0.4474 -2.13257,1.02728 -2.49948,0.86529 -2.41688,-0.95773 -2.08315,-0.2009 -2.26605,0.0544 z"
       id="path251" />
    <path
       style="fill:#503a23;fill-opacity:1;stroke:#000000;stroke-width:0;stroke-dasharray:none;stroke-opacity:1"
       d="m 227.12632,-480.24798 0.35992,-3.87458 1.36627,-3.43519 2.76978,-3.60285 2.17165,-1.60875 -2.06212,0.34937 -3.0943,1.5267 -1.91536,2.35748 -0.37559,3.33643 z"
       id="path252" />
    <path
       style="fill:#503a23;fill-opacity:1;stroke:#000000;stroke-width:0;stroke-dasharray:none;stroke-opacity:1"
       d="m 237.55018,-477.88489 2.05881,-3.87499 1.65251,-2.22099 2.28447,-2.37015 -2.85277,-5.44083 -1.53144,3.0492 -1.45596,4.84458 -0.28432,2.87333 z"
       id="path253" />
    <path
       style="fill:#503a23;fill-opacity:1;stroke:#000000;stroke-width:0;stroke-dasharray:none;stroke-opacity:1"
       d="m 215.53275,-515.75392 4.07485,0.52944 3.68319,-0.38951 4.03453,-0.87141 -2.187,2.0765 -4.48504,1.3883 -2.84341,0.25285 -2.24683,-2.41491 z"
       id="path254" />
    <g
       id="path2"
       style="opacity:1;stroke-width:1.87965"
       transform="matrix(0.53201329,0,0,0.53201394,105.73828,-281.38864)">
      <path
         style="baseline-shift:baseline;display:inline;overflow:visible;vector-effect:none;fill:#474747;fill-opacity:0;stroke-width:1.87965;stroke-linecap:round;enable-background:accumulate;stop-color:#000000;stop-opacity:1"
         d="m 172.83675,-479.83084 a 36.405602,39.507454 0 0 1 -36.4056,39.50745 36.405602,39.507454 0 0 1 -36.4056,-39.50745 36.405602,39.507454 0 0 1 36.4056,-39.50745 36.405602,39.507454 0 0 1 36.4056,39.50745 z"
         id="path19" />
      <path
         style="baseline-shift:baseline;display:inline;overflow:visible;vector-effect:none;fill:#434343;stroke-width:1.87965;stroke-linecap:round;enable-background:accumulate;stop-color:#000000;stop-opacity:1"
         d="m 136.43164,-526.16406 c -24.10988,0 -43.232421,21.11499 -43.232421,46.33398 0,25.219 19.122541,46.33399 43.232421,46.33399 24.10988,0 43.23242,-21.11499 43.23242,-46.33399 0,-25.21899 -19.12254,-46.33398 -43.23242,-46.33398 z m 0,13.65234 c 16.10263,0 29.57813,14.26191 29.57813,32.68164 0,18.41974 -13.4755,32.67969 -29.57813,32.67969 -16.10263,0 -29.58008,-14.25995 -29.58008,-32.67969 0,-18.41973 13.47745,-32.68164 29.58008,-32.68164 z"
         id="path20" />
    </g>
    <g
       id="circle2"
       transform="matrix(0.47111828,0,0,0.51125943,137.23178,-575.75584)"
       style="stroke-width:1.87965">
      <path
         style="baseline-shift:baseline;display:inline;overflow:visible;vector-effect:none;fill:#3d5148;fill-opacity:0;stroke-width:1.87965;stroke-linecap:round;enable-background:accumulate;stop-color:#000000;stop-opacity:1"
         d="M 89.90625,37.652344 A 41.111256,41.111256 0 0 0 48.794922,78.763672 41.111256,41.111256 0 0 0 89.90625,119.875 41.111256,41.111256 0 0 0 131.01758,78.763672 41.111256,41.111256 0 0 0 89.90625,37.652344 Z"
         id="path3" />
      <path
         id="path4"
         style="baseline-shift:baseline;display:inline;overflow:visible;vector-effect:none;fill:#111613;stroke-width:1.87965;stroke-linecap:round;enable-background:accumulate;stop-color:#000000;stop-opacity:1"
         transform="translate(-1.3447607,-1.9210867)"
         d="m 89.90625,32.150391 c -25.670576,-4.6e-5 -46.613326,20.942705 -46.613281,46.613281 -4.5e-5,25.670568 20.942706,46.613328 46.613281,46.613278 25.67057,5e-5 46.61333,-20.94271 46.61328,-46.613278 5e-5,-25.670576 -20.94271,-46.613328 -46.61328,-46.613281 z m 0,11.003906 c 19.72147,-3.5e-5 35.60941,15.887907 35.60938,35.609375 3e-5,19.721467 -15.88791,35.609408 -35.60938,35.609378 -19.721467,3e-5 -35.609409,-15.887911 -35.609375,-35.609378 -3.3e-5,-19.721467 15.887908,-35.609409 35.609375,-35.609375 z" />
    </g>
    <ellipse
       style="fill:#cf4a73;fill-opacity:1;stroke:#4b394c;stroke-width:0;stroke-linecap:round;stroke-dasharray:none;stroke-opacity:1"
       id="circle6"
       cx="179.62468"
       cy="-469.5546"
       rx="20.468491"
       ry="22.212486" />
    <ellipse
       style="fill:#d76b8b;fill-opacity:1;stroke:#4b394c;stroke-width:0;stroke-linecap:round;stroke-dasharray:none;stroke-opacity:1"
       id="ellipse6"
       cx="183.35631"
       cy="-469.69925"
       rx="16.603592"
       ry="19.319933" />
    <path
       id="circle7"
       style="fill:#474747;fill-opacity:0;stroke:#434343;stroke-width:13.6529;stroke-linecap:round"
       d="m 197.68973,-469.16896 a 19.368264,21.018516 0 0 1 -19.36826,21.01852 19.368264,21.018516 0 0 1 -19.36827,-21.01852 19.368264,21.018516 0 0 1 19.36827,-21.01852 19.368264,21.018516 0 0 1 19.36826,21.01852 z" />
    <g
       id="g10"
       transform="matrix(0.47111828,0,0,0.51125943,137.23178,-508.25946)"
       style="stroke-width:1.87965">
      <path
         style="baseline-shift:baseline;display:inline;overflow:visible;vector-effect:none;fill:#3d5148;fill-opacity:0;stroke-width:1.87965;stroke-linecap:round;enable-background:accumulate;stop-color:#000000;stop-opacity:1"
         d="M 89.90625,37.652344 A 41.111256,41.111256 0 0 0 48.794922,78.763672 41.111256,41.111256 0 0 0 89.90625,119.875 41.111256,41.111256 0 0 0 131.01758,78.763672 41.111256,41.111256 0 0 0 89.90625,37.652344 Z"
         id="path9" />
      <path
         id="path10"
         style="baseline-shift:baseline;display:inline;overflow:visible;vector-effect:none;fill:#111613;stroke-width:1.87965;stroke-linecap:round;enable-background:accumulate;stop-color:#000000;stop-opacity:1"
         transform="translate(-1.3447607,-1.9210867)"
         d="m 89.90625,32.150391 c -25.670576,-4.6e-5 -46.613326,20.942705 -46.613281,46.613281 -4.5e-5,25.670568 20.942706,46.613328 46.613281,46.613278 25.67057,5e-5 46.61333,-20.94271 46.61328,-46.613278 5e-5,-25.670576 -20.94271,-46.613328 -46.61328,-46.613281 z m 0,11.003906 c 19.72147,-3.5e-5 35.60941,15.887907 35.60938,35.609375 3e-5,19.721467 -15.88791,35.609408 -35.60938,35.609378 -19.721467,3e-5 -35.609409,-15.887911 -35.609375,-35.609378 -3.3e-5,-19.721467 15.887908,-35.609409 35.609375,-35.609375 z" />
    </g>
    <path
       id="path17"
       style="fill:#a79b5a;fill-opacity:1;stroke:#4b394c;stroke-width:0;stroke-linecap:round"
       d="m 178.41573,-544.64229 a 7.5134678,8.5904482 0 0 0 -7.51361,8.59065 7.5134678,8.5904482 0 0 0 0.0877,1.30642 l 4.51881,67.21249 a 2.9069966,3.3236854 0 0 0 2.90709,3.3237 2.9069966,3.3236854 0 0 0 2.90684,-3.3237 l 4.51831,-67.20589 v -2.7e-4 a 7.5134678,8.5904482 0 0 0 0.0882,-1.31275 7.5134678,8.5904482 0 0 0 -7.51336,-8.59065 z" />
    <path
       id="path28"
       style="fill:#a79b5a;fill-opacity:1;stroke:#4b394c;stroke-width:0;stroke-linecap:round"
       d="m 224.63879,-528.84829 a 6.4775659,4.2334447 61.87746 0 0 -6.09919,-6.22004 6.4775659,4.2334447 61.87746 0 0 -0.67822,0.0446 l -34.89132,2.29988 a 2.5062013,1.6379401 61.877464 0 0 -1.18158,2.27426 2.5062013,1.6379401 61.877464 0 0 2.35972,2.40637 l 36.7191,4.97555 1.5e-4,10e-6 a 6.4775659,4.2334447 61.87746 0 0 0.71723,0.0971 6.4775659,4.2334447 61.87746 0 0 3.05411,-5.87778 z" />
    <path
       id="path16"
       style="fill:#dcd090;stroke:#4b394c;stroke-width:0;stroke-linecap:round"
       d="m 176.45128,-541.52313 a 7.5134678,8.5904482 0 0 0 -7.51362,8.59065 7.5134678,8.5904482 0 0 0 0.0877,1.30643 l 4.51881,67.21248 a 2.9069966,3.3236854 0 0 0 2.90709,3.3237 2.9069966,3.3236854 0 0 0 2.90684,-3.3237 l 4.51831,-67.20588 v -2.8e-4 a 7.5134678,8.5904482 0 0 0 0.0882,-1.31275 7.5134678,8.5904482 0 0 0 -7.51336,-8.59065 z" />
    <ellipse
       style="fill:#595540;fill-opacity:1;stroke:#4b394c;stroke-width:0;stroke-linecap:round;stroke-dasharray:none;stroke-opacity:1"
       id="path18"
       cx="174.20399"
       cy="-535.11853"
       rx="1.4778353"
       ry="1.7896765" />
    <ellipse
       style="fill:#aca78b;fill-opacity:1;stroke:#4b394c;stroke-width:0;stroke-linecap:round;stroke-dasharray:none;stroke-opacity:1"
       id="ellipse18"
       cx="174.5705"
       cy="-535.15466"
       rx="0.81147343"
       ry="0.98270422" />
    <ellipse
       style="fill:#595540;fill-opacity:1;stroke:#4b394c;stroke-width:0;stroke-linecap:round;stroke-dasharray:none;stroke-opacity:1"
       id="ellipse19"
       cx="178.23549"
       cy="-535.11853"
       rx="1.4778353"
       ry="1.7896765" />
    <ellipse
       style="fill:#aca78b;fill-opacity:1;stroke:#4b394c;stroke-width:0;stroke-linecap:round;stroke-dasharray:none;stroke-opacity:1"
       id="ellipse20"
       cx="178.60199"
       cy="-535.15466"
       rx="0.81147343"
       ry="0.98270422" />
    <ellipse
       style="fill:#595540;fill-opacity:1;stroke:#4b394c;stroke-width:0;stroke-linecap:round;stroke-dasharray:none;stroke-opacity:1"
       id="ellipse21"
       cx="174.20399"
       cy="-530.92432"
       rx="1.4778353"
       ry="1.7896765" />
    <ellipse
       style="fill:#aca78b;fill-opacity:1;stroke:#4b394c;stroke-width:0;stroke-linecap:round;stroke-dasharray:none;stroke-opacity:1"
       id="ellipse22"
       cx="174.5705"
       cy="-530.96045"
       rx="0.81147343"
       ry="0.98270422" />
    <ellipse
       style="fill:#595540;fill-opacity:1;stroke:#4b394c;stroke-width:0;stroke-linecap:round;stroke-dasharray:none;stroke-opacity:1"
       id="ellipse23"
       cx="178.23549"
       cy="-530.92432"
       rx="1.4778353"
       ry="1.7896765" />
    <ellipse
       style="fill:#aca78b;fill-opacity:1;stroke:#4b394c;stroke-width:0;stroke-linecap:round;stroke-dasharray:none;stroke-opacity:1"
       id="ellipse24"
       cx="178.60199"
       cy="-530.96045"
       rx="0.81147343"
       ry="0.98270422" />
    <ellipse
       style="fill:#595540;fill-opacity:1;stroke:#4b394c;stroke-width:0;stroke-linecap:round;stroke-dasharray:none;stroke-opacity:1"
       id="ellipse25"
       cx="176.44496"
       cy="-465.16641"
       rx="1.9490244"
       ry="2.3602922" />
    <ellipse
       style="fill:#aca78b;fill-opacity:1;stroke:#4b394c;stroke-width:0;stroke-linecap:round;stroke-dasharray:none;stroke-opacity:1"
       id="ellipse26"
       cx="176.92833"
       cy="-465.21408"
       rx="1.0702014"
       ry="1.2960269" />
    <path
       id="path26"
       style="fill:#dcd090;stroke:#4b394c;stroke-width:0;stroke-linecap:round"
       d="m 208.97494,-490.40001 a 4.4923952,5.4454721 40.950353 0 0 -1.06186,-6.73812 4.4923952,5.4454721 40.950353 0 0 -0.63808,-0.27636 l -32.83017,-14.21456 a 1.7381292,2.1068793 40.950366 0 0 -2.66302,0.92935 1.7381292,2.1068793 40.950366 0 0 0.41089,2.60686 l 29.3264,19.70954 1.3e-4,7e-5 a 4.4923952,5.4454721 40.950353 0 0 0.57286,0.38496 4.4923952,5.4454721 40.950353 0 0 6.88285,-2.40174 z" />
    <path
       id="path29"
       style="fill:#dcd090;stroke:#4b394c;stroke-width:0;stroke-linecap:round"
       d="m 223.27301,-526.75527 a 6.4775659,4.2334447 61.87746 0 0 -6.09919,-6.22004 6.4775659,4.2334447 61.87746 0 0 -0.67821,0.0446 l -34.89132,2.29987 a 2.5062013,1.6379401 61.877464 0 0 -1.18158,2.27426 2.5062013,1.6379401 61.877464 0 0 2.35972,2.40639 l 36.7191,4.97553 1.5e-4,10e-6 a 6.4775659,4.2334447 61.87746 0 0 0.71723,0.0972 6.4775659,4.2334447 61.87746 0 0 3.0541,-5.87777 z" />
    <path
       d="m 218.14214,-524.48049 c 0.0518,-0.80227 -0.15567,-1.20833 -0.40878,-1.73909 -0.2317,-0.48586 -0.5507,-0.93281 -1.02651,-1.31281 l -10.96319,5.41139 c -0.11762,0.0581 -0.21218,0.21768 -0.21218,0.35791 v 3.25409 c 0,0.14021 0.0946,0.20633 0.21218,0.14827 z"
       style="fill:#4c324a;fill-opacity:1;stroke:#4b394c;stroke-width:0;stroke-linecap:round"
       id="path31"
       sodipodi:nodetypes="csccsscc" />
    <rect
       style="fill:#a577a2;fill-opacity:1;stroke:#000000;stroke-width:0;stroke-dasharray:none;stroke-opacity:1"
       id="rect257"
       width="12.600379"
       height="6.0769396"
       x="217.12755"
       y="-421.93777"
       ry="1.0742898"
       transform="matrix(0.89671453,-0.44260936,0,1,0,0)" />
    <rect
       style="fill:#684566;fill-opacity:1;stroke:#000000;stroke-width:0;stroke-dasharray:none;stroke-opacity:1"
       id="rect260"
       width="9.9569798"
       height="1.22934"
       x="218.7179"
       y="-419.98941"
       ry="0.27117696"
       transform="matrix(0.89671453,-0.44260936,0,1,0,0)" />
    <rect
       style="fill:#684566;fill-opacity:1;stroke:#000000;stroke-width:0;stroke-dasharray:none;stroke-opacity:1"
       id="rect261"
       width="9.6803961"
       height="1.157024"
       x="218.6257"
       y="-417.8923"
       ry="0.27117696"
       transform="matrix(0.89671453,-0.44260936,0,1,0,0)" />
    <rect
       style="fill:#684566;fill-opacity:1;stroke:#000000;stroke-width:0;stroke-dasharray:none;stroke-opacity:1"
       id="rect259"
       width="9.9339304"
       height="0.65082282"
       x="218.74094"
       y="-421.29105"
       ry="0.25309753"
       transform="matrix(0.89671453,-0.44260936,0,1,0,0)" />
    <path
       id="rect258"
       style="fill:#4c324a;stroke:#000000;stroke-width:0"
       d="m 195.48679,-518.89973 c 0.94028,-0.0628 1.42384,1.37228 1.57483,3.37301 0.17203,2.2793 -0.91813,3.49657 -1.57483,3.57488 -1.09223,0.13024 -1.7653,-2.04225 -1.78687,-3.32512 -0.023,-1.36946 0.63119,-3.54551 1.78687,-3.62277 z"
       sodipodi:nodetypes="sssas" />
    <rect
       style="fill:#a577a2;fill-opacity:1;stroke:#000000;stroke-width:0;stroke-dasharray:none;stroke-opacity:1"
       id="rect262"
       width="12.600379"
       height="6.0769396"
       x="-269.87851"
       y="-421.72086"
       ry="1.0742898"
       transform="matrix(-0.89671453,0.44260936,0,1,0,0)" />
    <rect
       style="fill:#684566;fill-opacity:1;stroke:#000000;stroke-width:0;stroke-dasharray:none;stroke-opacity:1"
       id="rect263"
       width="9.9569798"
       height="1.22934"
       x="-268.28818"
       y="-419.77246"
       ry="0.27117696"
       transform="matrix(-0.89671453,0.44260936,0,1,0,0)" />
    <rect
       style="fill:#684566;fill-opacity:1;stroke:#000000;stroke-width:0;stroke-dasharray:none;stroke-opacity:1"
       id="rect264"
       width="9.6803961"
       height="1.157024"
       x="-268.38034"
       y="-417.67535"
       ry="0.27117696"
       transform="matrix(-0.89671453,0.44260936,0,1,0,0)" />
    <rect
       style="fill:#684566;fill-opacity:1;stroke:#000000;stroke-width:0;stroke-dasharray:none;stroke-opacity:1"
       id="rect265"
       width="9.9339304"
       height="0.65082282"
       x="-268.26511"
       y="-421.07413"
       ry="0.25309753"
       transform="matrix(-0.89671453,0.44260936,0,1,0,0)" />
    <rect
       style="fill:#4c324a;fill-opacity:1;stroke:#000000;stroke-width:0;stroke-dasharray:none;stroke-opacity:1"
       id="rect266"
       width="1.936079"
       height="6.947886"
       x="-269.9707"
       y="-422.19247"
       ry="1.0742898"
       transform="matrix(-0.89671453,0.44260936,0,1,0,0)" />
    <ellipse
       style="fill:#f1c9ed;fill-opacity:1;stroke:#4b394c;stroke-width:0;stroke-linecap:round;stroke-dasharray:none;stroke-opacity:1"
       id="path32"
       cx="-342.17941"
       cy="-414.94165"
       rx="21.373766"
       ry="13.218317"
       transform="matrix(0.40347167,0.91499214,-0.8874709,0.46086376,0,0)" />
    <ellipse
       style="fill:#f8e4f6;fill-opacity:1;stroke:#4b394c;stroke-width:0;stroke-linecap:round;stroke-dasharray:none;stroke-opacity:1"
       id="ellipse37"
       cx="-340.46844"
       cy="-413.18063"
       rx="19.662798"
       ry="11.457334"
       transform="matrix(0.40347167,0.91499214,-0.8874709,0.46086376,0,0)" />
    <ellipse
       style="fill:#3d243b;fill-opacity:1;stroke:#4b394c;stroke-width:0;stroke-linecap:round;stroke-dasharray:none;stroke-opacity:1"
       id="path33"
       cx="-167.33627"
       cy="-524.30286"
       rx="2.3540173"
       ry="0.83096069"
       transform="matrix(0.70024037,0.71390715,-0.65451688,0.75604739,0,0)" />
    <ellipse
       style="fill:#3d243b;fill-opacity:1;stroke:#4b394c;stroke-width:0;stroke-linecap:round;stroke-dasharray:none;stroke-opacity:1"
       id="ellipse33"
       cx="-432.9538"
       cy="-321.04639"
       rx="2.4473238"
       ry="0.73015571"
       transform="matrix(0.18071815,0.98353493,-0.97737932,0.21149391,0,0)" />
    <g
       id="path34"
       style="opacity:1;stroke-width:1.87965"
       transform="matrix(0.53201329,0,0,0.53201394,105.73828,-281.38864)">
      <path
         style="baseline-shift:baseline;display:inline;overflow:visible;vector-effect:none;fill:#3d243b;fill-opacity:0;stroke-width:1.87965;stroke-linecap:round;enable-background:accumulate;stop-color:#000000;stop-opacity:1"
         d="m 228.30082,-425.72842 c 0,0 6.50264,4.5103 7.78252,8.17353 0.81855,2.34282 -0.53251,7.49447 -0.53251,7.49447"
         id="path8" />
      <path
         style="baseline-shift:baseline;display:inline;overflow:visible;vector-effect:none;fill:#4b394c;stroke-width:1.87965;stroke-linecap:round;enable-background:accumulate;stop-color:#000000;stop-opacity:1"
         d="m 229.0625,-426.82422 a 1.33473,1.33473 0 0 0 -1.85938,0.33594 1.33473,1.33473 0 0 0 0.3379,1.85742 c 0,0 1.56532,1.08624 3.28515,2.61328 1.71983,1.52705 3.534,3.57417 3.99805,4.90235 0.23338,0.66797 0.20407,2.48895 -0.0195,3.99023 -0.22361,1.50128 -0.54492,2.72656 -0.54492,2.72656 a 1.33473,1.33473 0 0 0 0.95312,1.62891 1.33473,1.33473 0 0 0 1.62891,-0.95313 c 0,0 0.35427,-1.34951 0.60156,-3.00976 0.24729,-1.66026 0.48556,-3.58882 -0.0996,-5.26367 -0.81583,-2.33505 -2.89464,-4.37367 -4.74609,-6.01758 -1.85146,-1.64392 -3.53516,-2.81055 -3.53516,-2.81055 z"
         id="path11" />
    </g>
    <g
       id="path35"
       style="opacity:1;stroke-width:1.87965"
       transform="matrix(0.53201329,0,0,0.53201394,105.73828,-281.38864)">
      <path
         style="baseline-shift:baseline;display:inline;overflow:visible;vector-effect:none;fill:#834d7f;fill-opacity:0;stroke-width:1.87965;stroke-linecap:round;enable-background:accumulate;stop-color:#000000;stop-opacity:1"
         d="m 229.05721,-420.9999 c 0,0 3.15327,2.78299 3.90712,4.81718 0.48209,1.30098 0.11917,3.98357 0.11917,3.98357"
         id="path6" />
      <path
         style="baseline-shift:baseline;display:inline;overflow:visible;vector-effect:none;fill:#bca6bd;stroke-width:1.87965;stroke-linecap:round;enable-background:accumulate;stop-color:#000000;stop-opacity:1"
         d="m 229.01562,-421.65234 a 0.65273499,0.65273499 0 0 0 -0.44726,0.2207 0.65273499,0.65273499 0 0 0 0.0566,0.92187 c 0,0 0.76621,0.67517 1.625,1.59961 0.85879,0.92445 1.79398,2.12511 2.10156,2.95508 0.17171,0.46338 0.23038,1.42975 0.20117,2.22852 -0.0292,0.79876 -0.11523,1.43945 -0.11523,1.43945 a 0.65273499,0.65273499 0 0 0 0.55859,0.73438 0.65273499,0.65273499 0 0 0 0.73438,-0.5586 c 0,0 0.0952,-0.70058 0.12695,-1.56836 0.0317,-0.86777 0.0291,-1.89287 -0.28125,-2.73047 -0.44627,-1.20421 -1.46283,-2.41307 -2.36914,-3.38867 -0.90631,-0.9756 -1.71875,-1.6914 -1.71875,-1.6914 a 0.65273499,0.65273499 0 0 0 -0.47266,-0.16211 z"
         id="path7" />
    </g>
    <path
       style="fill:#64492c;fill-opacity:1;stroke:#bca6bd;stroke-width:0;stroke-linecap:round;stroke-dasharray:none;stroke-opacity:1"
       d="m 232.17509,-522.47377 c 0,0 1.05869,0.008 -0.31337,2.8794 -1.37206,2.87191 -2.65788,3.67896 -2.65788,3.67896 l 5.71821,-0.46178 1.8992,-1.54352 0.84314,5.90104 -0.69276,3.21574 -1.87419,1.6002 2.7671,0.0258 1.87876,-1.32393 1.45388,-2.28748 2.64242,5.59361 1.03162,4.20103 0.6113,3.51375 -1.75606,1.46919 -2.50807,1.09346 1.98563,0.77997 2.73984,-0.16895 0.38864,3.14177 -0.19816,-10.55479 -4.91459,-12.07606 -6.00034,-7.89001 -1.93564,-0.66661 z"
       id="path36" />
    <path
       style="fill:#64492c;fill-opacity:1;stroke:#bca6bd;stroke-width:0;stroke-linecap:round;stroke-dasharray:none;stroke-opacity:1"
       d="m 238.82988,-511.37105 c 0,0 1.05869,0.008 -0.31337,2.8794 -1.37206,2.87191 -2.65789,3.67896 -2.65789,3.67896 l 5.71822,-0.46179 1.89919,-1.54351 0.84314,5.90105 -0.69276,3.21574 -1.8742,1.60019 c 3.69893,0.22694 4.09583,-0.43265 6.09974,-3.58554 l -1.23598,-2.00517 -4.74178,-8.89187 -1.93564,-0.66661 z"
       id="path37"
       sodipodi:nodetypes="csccccccccccc" />
    <g
       id="g1"
       transform="matrix(0.13282292,-0.17331624,0.33831517,0.37236421,189.57678,-535.57666)"
       inkscape:transform-center-x="-9.9643612"
       inkscape:transform-center-y="14.533142"
       style="stroke-width:1.87965">
      <path
         style="fill:#484d71;fill-opacity:1;stroke:#000000;stroke-width:0;stroke-dasharray:none;stroke-opacity:1"
         d="m 123.1111,143.46338 10.83202,28.30051 c 0,0 -8.87193,13.5218 -16.26962,15.58255 -11.70292,3.26005 -22.825709,-0.77181 -22.825709,-0.77181 l -12.21351,-56.95421"
         id="path246-1"
         sodipodi:nodetypes="ccscc" />
      <path
         style="fill:#6871bf;fill-opacity:1;stroke:#000000;stroke-width:0;stroke-dasharray:none;stroke-opacity:1"
         d="m 128.91568,143.67378 10.76859,27.67327 c 0,0 -8.89851,13.25912 -16.29865,15.29577 -11.70677,3.22192 -22.81796,-0.69534 -22.81796,-0.69534 L 88.479271,130.23033"
         id="path245-5"
         sodipodi:nodetypes="ccscc" />
      <path
         style="opacity:1;fill:#1b1b1b;fill-opacity:1;stroke:#000000;stroke-width:0;stroke-dasharray:none;stroke-opacity:1"
         d="m 135.38561,204.04273 31.51345,-7.94179 c 0,0 13.19722,10.20419 14.40814,17.78398 1.91565,11.99097 -3.84217,22.6688 -3.84217,22.6688 l -62.15114,6.43019"
         id="path247-2"
         sodipodi:nodetypes="ccscc"
         mask="url(#mask248-5-8)"
         transform="matrix(0.07845794,0.77565307,-0.84538524,0.10529957,289.65108,19.092422)" />
    </g>
    <path
       id="path240"
       style="fill:#434660;fill-opacity:1;stroke-width:0.135282"
       d="m 245.00331,-516.43382 c -2.79497,-2.98977 -6.2301,-6.55255 -8.94332,-8.49196 -3.6123,-2.14424 -7.51188,-4.45732 -8.49795,-2.97672 2.5e-4,1e-4 0,0 0,0 -1.19801,1.85518 0.24406,6.31074 3.81738,11.79452 0,0 0.0152,-0.004 0.0436,-0.012 1.94516,3.02304 4.44911,6.21374 7.22693,9.19068 2.70739,2.89077 5.54287,5.43813 8.18272,7.35162 4.85292,3.52976 8.53858,4.55933 9.75645,2.72539 0,0 -1.2e-4,-2.9e-4 0,0 0.96669,-1.50134 -1.50163,-5.99998 -3.78931,-10.16695 -1.71447,-3.10807 -4.16624,-5.52533 -7.79654,-9.41465 z"
       sodipodi:nodetypes="sccccccccccss"
       inkscape:transform-center-x="4.8257186"
       inkscape:transform-center-y="-4.1506766" />
    <path
       id="path13"
       style="fill:#6a72bd;fill-opacity:1;stroke-width:0.135282"
       d="m 247.96095,-521.20679 c 0.26129,9.72674 5.88697,15.70771 9.1652,23.5344 -1.05498,-7.73968 -2.7243,-16.85377 -9.1652,-23.5344 z"
       sodipodi:nodetypes="ccc"
       inkscape:transform-center-x="-5.741472"
       inkscape:transform-center-y="-1.425208" />
    <path
       id="path15"
       style="fill:#6a72bd;fill-opacity:1;stroke-width:0.135282"
       d="m 247.64206,-521.54792 c -7.47538,1.54139 -13.00227,-4.45571 -19.54297,-7.17467 11.38617,-2.66755 14.53748,1.38486 19.54297,7.17467 z"
       sodipodi:nodetypes="ccc"
       inkscape:transform-center-x="8.9315035"
       inkscape:transform-center-y="-17.415262" />
    <path
       id="path12"
       style="fill:#f3e9a6;fill-opacity:1;stroke-width:0.135282"
       d="m 257.12615,-497.67239 c -2.88058,-12.24398 -4.72754,-13.96079 -9.1652,-23.5344 l -0.23989,-0.12529 c -1.4196,14.01704 -0.49106,11.01683 -0.35135,20.93431 4.85292,3.52977 8.53857,4.55932 9.75644,2.72538 z"
       sodipodi:nodetypes="ccccc"
       inkscape:transform-center-x="-5.2322901"
       inkscape:transform-center-y="-1.0412394" />
    <path
       id="path14"
       style="fill:#f3e9a6;fill-opacity:1;stroke-width:0.135282"
       d="m 228.09909,-528.72259 c 8.88295,0.61295 13.14836,3.71679 19.54297,7.17467 l 0.13874,0.27975 c -5.20408,3.03753 -10.49194,2.8922 -15.86432,4.34008 -3.57333,-5.48375 -5.01541,-9.93932 -3.81739,-11.7945 z"
       sodipodi:nodetypes="ccccc"
       inkscape:transform-center-x="9.0690707"
       inkscape:transform-center-y="-14.810958" />
    <path
       id="path1"
       style="fill:#df7c7c;fill-opacity:1;stroke-width:0.135282"
       d="m 247.72106,-521.33208 c -6.84947,-2.45276 -11.16997,-1.84803 -17.41375,1.85342 2.06078,3.70071 5.25415,7.99937 8.79658,11.79574 2.7074,2.89076 5.62597,5.37166 8.26582,7.28515 2.13852,-7.73102 3.2503,-7.99241 0.35135,-20.93431 z"
       sodipodi:nodetypes="ccccc"
       inkscape:transform-center-x="6.9118225"
       inkscape:transform-center-y="-3.5871461" />
    <ellipse
       style="fill:#ffffff;fill-opacity:1;stroke:#000000;stroke-width:0;stroke-dasharray:none;stroke-opacity:1"
       id="ellipse41"
       cx="24.264189"
       cy="549.30267"
       rx="1.7299798"
       ry="2.2422805"
       transform="matrix(0.87544389,0.48331976,0.4244677,-0.90544308,0,0)" />
    <ellipse
       style="fill:#f8e4f6;fill-opacity:1;stroke:#000000;stroke-width:0;stroke-dasharray:none;stroke-opacity:1"
       id="path267"
       cx="161.46178"
       cy="516.16547"
       rx="4.0670748"
       ry="4.6620331"
       transform="matrix(0.99629906,0.08595451,0.07306241,-0.99732737,0,0)" />
    <ellipse
       style="fill:#ffffff;fill-opacity:1;stroke:#000000;stroke-width:0;stroke-dasharray:none;stroke-opacity:1"
       id="ellipse267"
       cx="162.7619"
       cy="514.93671"
       rx="1.7001706"
       ry="2.2768068"
       transform="matrix(0.99629906,0.08595451,0.07306241,-0.99732737,0,0)" />
    <path
       style="fill:#a2372e;fill-opacity:1;stroke:#000000;stroke-width:0;stroke-dasharray:none;stroke-opacity:1"
       d="m 246.93041,-521.73035 c 0,0 -10.60067,-5.00652 -17.0793,-5.74162 -2.07202,-0.23511 -4.95879,0.54701 -5.60411,1.71661 -0.60833,1.1028 0.85855,2.63524 2.67728,3.10584 6.37582,1.64975 20.00613,0.91917 20.00613,0.91917 z"
       id="path280"
       sodipodi:nodetypes="csasc" />
    <path
       style="fill:#a2372e;fill-opacity:1;stroke:#000000;stroke-width:0;stroke-dasharray:none;stroke-opacity:1"
       d="m 248.14871,-521.50298 c 0,0 12.5192,-0.48472 18.03569,1.11 1.76431,0.51004 3.20338,2.12328 2.6116,3.2931 -0.55807,1.10296 -3.06146,1.85305 -4.85273,1.6203 -6.27956,-0.81592 -15.79456,-6.0234 -15.79456,-6.0234 z"
       id="path281"
       sodipodi:nodetypes="csasc" />
    <path
       id="path282"
       style="fill:#d24242;fill-opacity:1;stroke:#000000;stroke-width:0;stroke-dasharray:none;stroke-opacity:1"
       sodipodi:type="inkscape:offset"
       inkscape:radius="-1.8294741"
       inkscape:original="M 65.658203 90.830078 C 63.461813 90.707936 61.398162 90.722673 59.552734 90.916016 C 54.831019 91.410704 49.565825 95.720315 49.564453 99.929688 C 49.563153 103.89855 54.51971 108.00562 58.976562 108.43359 C 74.60075 109.93391 102.9707 99.25 102.9707 99.25 C 102.9707 99.25 81.032932 91.68507 65.658203 90.830078 z "
       d="m 65.556641,92.65625 c -2.124813,-0.118162 -4.098061,-0.09954 -5.8125,0.08008 -1.883385,0.19732 -4.113003,1.240319 -5.751954,2.671875 -1.63895,1.431556 -2.597218,3.179379 -2.597656,4.521484 -4e-4,1.222643 0.88268,2.864453 2.410156,4.205083 1.527477,1.34062 3.609278,2.31158 5.347657,2.47851 7.295919,0.7006 18.237308,-1.51324 27.195312,-3.97265 4.211592,-1.15629 7.845259,-2.3239 10.671875,-3.267583 -6.247422,-1.987442 -19.69295,-6.062268 -31.46289,-6.716797 z"
       transform="matrix(0.42278246,0.0789056,-0.13560174,0.24601383,218.0238,-554.09462)" />
    <path
       id="path284-1"
       style="fill:#d24242;fill-opacity:1;stroke:#000000;stroke-width:0;stroke-dasharray:none;stroke-opacity:1"
       sodipodi:type="inkscape:offset"
       inkscape:radius="-1.8294741"
       inkscape:original="M 65.658203 90.830078 C 63.461813 90.707936 61.398162 90.722673 59.552734 90.916016 C 54.831019 91.410704 49.565825 95.720315 49.564453 99.929688 C 49.563153 103.89855 54.51971 108.00562 58.976562 108.43359 C 74.60075 109.93391 102.9707 99.25 102.9707 99.25 C 102.9707 99.25 81.032932 91.68507 65.658203 90.830078 z "
       d="m 65.556641,92.65625 c -2.124813,-0.118162 -4.098061,-0.09954 -5.8125,0.08008 -1.883385,0.19732 -4.113003,1.240319 -5.751954,2.671875 -1.63895,1.431556 -2.597218,3.179379 -2.597656,4.521484 -4e-4,1.222643 0.88268,2.864453 2.410156,4.205083 1.527477,1.34062 3.609278,2.31158 5.347657,2.47851 7.295919,0.7006 18.237308,-1.51324 27.195312,-3.97265 4.211592,-1.15629 7.845259,-2.3239 10.671875,-3.267583 -6.247422,-1.987442 -19.69295,-6.062268 -31.46289,-6.716797 z"
       transform="matrix(-0.38840091,-0.0789056,-0.12457433,0.24601383,299.32766,-538.07502)" />
    <rect
       style="fill:#f88f43;fill-opacity:1;stroke:#b54c00;stroke-width:1.47084;stroke-linecap:round;stroke-linejoin:round;stroke-dasharray:none;stroke-opacity:1"
       id="rect6-7"
       width="41.50914"
       height="41.50914"
       x="361.79077"
       y="-351.80957"
       ry="8.9294109"
       transform="rotate(-20.104821)" />
    <circle
       style="fill:#c35607;fill-opacity:1;stroke:#b54c00;stroke-width:0;stroke-linecap:round;stroke-linejoin:round;stroke-dasharray:none;stroke-opacity:1"
       id="circle10"
       cx="382.0549"
       cy="-331.11972"
       r="18.626232"
       transform="rotate(-20.104821)" />
    <circle
       style="fill:#ffffff;fill-opacity:1;stroke:#b54c00;stroke-width:0;stroke-linecap:round;stroke-linejoin:round;stroke-dasharray:none;stroke-opacity:1"
       id="path6-1"
       cx="382.0549"
       cy="-331.11972"
       r="15.892705"
       transform="rotate(-20.104821)" />
    <circle
       style="fill:#f66d09;fill-opacity:1;stroke:#b54c00;stroke-width:0;stroke-linecap:round;stroke-linejoin:round;stroke-dasharray:none;stroke-opacity:1"
       id="circle6-1"
       cx="382.0549"
       cy="-331.11972"
       r="12.17009"
       transform="rotate(-20.104821)" />
    <circle
       style="fill:#ffffff;fill-opacity:1;stroke:#b54c00;stroke-width:0;stroke-linecap:round;stroke-linejoin:round;stroke-dasharray:none;stroke-opacity:1"
       id="circle7-5"
       cx="382.0549"
       cy="-331.11972"
       r="7.874764"
       transform="rotate(-20.104821)" />
    <circle
       style="fill:#f66d09;fill-opacity:1;stroke:#b54c00;stroke-width:0;stroke-linecap:round;stroke-linejoin:round;stroke-dasharray:none;stroke-opacity:1"
       id="circle8"
       cx="382.0549"
       cy="-331.11972"
       r="4.4385028"
       transform="rotate(-20.104821)" />
    <circle
       style="fill:#783504;fill-opacity:1;stroke:#b54c00;stroke-width:0;stroke-linecap:round;stroke-linejoin:round;stroke-dasharray:none;stroke-opacity:1"
       id="circle9"
       cx="382.0549"
       cy="-331.11972"
       r="3.293083"
       transform="rotate(-20.104821)" />
    <rect
       style="fill:#f88f43;fill-opacity:1;stroke:#b54c00;stroke-width:1.47084;stroke-linecap:round;stroke-linejoin:round;stroke-dasharray:none;stroke-opacity:1"
       id="rect20"
       width="41.50914"
       height="41.50914"
       x="97.930923"
       y="-474.23883"
       ry="8.9294109"
       transform="rotate(7.7558838)" />
    <circle
       style="fill:#c35607;fill-opacity:1;stroke:#b54c00;stroke-width:0;stroke-linecap:round;stroke-linejoin:round;stroke-dasharray:none;stroke-opacity:1"
       id="circle20"
       cx="118.19505"
       cy="-453.54901"
       r="18.626232"
       transform="rotate(7.7558838)" />
    <circle
       style="fill:#ffffff;fill-opacity:1;stroke:#b54c00;stroke-width:0;stroke-linecap:round;stroke-linejoin:round;stroke-dasharray:none;stroke-opacity:1"
       id="circle21"
       cx="118.19505"
       cy="-453.54901"
       r="15.892705"
       transform="rotate(7.7558838)" />
    <circle
       style="fill:#f66d09;fill-opacity:1;stroke:#b54c00;stroke-width:0;stroke-linecap:round;stroke-linejoin:round;stroke-dasharray:none;stroke-opacity:1"
       id="circle22"
       cx="118.19505"
       cy="-453.54901"
       r="12.17009"
       transform="rotate(7.7558838)" />
    <circle
       style="fill:#ffffff;fill-opacity:1;stroke:#b54c00;stroke-width:0;stroke-linecap:round;stroke-linejoin:round;stroke-dasharray:none;stroke-opacity:1"
       id="circle23"
       cx="118.19505"
       cy="-453.54901"
       r="7.874764"
       transform="rotate(7.7558838)" />
    <circle
       style="fill:#f66d09;fill-opacity:1;stroke:#b54c00;stroke-width:0;stroke-linecap:round;stroke-linejoin:round;stroke-dasharray:none;stroke-opacity:1"
       id="circle24"
       cx="118.19505"
       cy="-453.54901"
       r="4.4385028"
       transform="rotate(7.7558838)" />
    <circle
       style="fill:#783504;fill-opacity:1;stroke:#b54c00;stroke-width:0;stroke-linecap:round;stroke-linejoin:round;stroke-dasharray:none;stroke-opacity:1"
       id="circle25"
       cx="118.19505"
       cy="-453.54901"
       r="3.293083"
       transform="rotate(7.7558838)" />
  </g>
</svg>
