<?xml version="1.0" encoding="UTF-8" standalone="no"?>
<!-- Created with Inkscape (http://www.inkscape.org/) -->

<svg
   width="19.503981mm"
   height="31.25095mm"
   viewBox="0 0 19.503981 31.25095"
   version="1.1"
   id="svg1"
   inkscape:version="1.4.2 (f4327f4, 2025-05-13)"
   sodipodi:docname="PlayerFoot.svg"
   xmlns:inkscape="http://www.inkscape.org/namespaces/inkscape"
   xmlns:sodipodi="http://sodipodi.sourceforge.net/DTD/sodipodi-0.dtd"
   xmlns="http://www.w3.org/2000/svg"
   xmlns:svg="http://www.w3.org/2000/svg">
  <sodipodi:namedview
     id="namedview1"
     pagecolor="#ffffff"
     bordercolor="#000000"
     borderopacity="0.25"
     inkscape:showpageshadow="2"
     inkscape:pageopacity="0.0"
     inkscape:pagecheckerboard="0"
     inkscape:deskcolor="#d1d1d1"
     inkscape:document-units="mm"
     inkscape:zoom="0.97386896"
     inkscape:cx="247.46656"
     inkscape:cy="304.96916"
     inkscape:window-width="1920"
     inkscape:window-height="991"
     inkscape:window-x="-9"
     inkscape:window-y="-9"
     inkscape:window-maximized="1"
     inkscape:current-layer="layer1" />
  <defs
     id="defs1">
    <mask
       maskUnits="userSpaceOnUse"
       id="mask248">
      <path
         style="fill:#484d71;fill-opacity:1;stroke:#000000;stroke-width:0;stroke-dasharray:none;stroke-opacity:1"
         d="M 195.09349,211.31953 94.488312,230.04044 64.513701,191.89933 173.16787,182.88745 Z"
         id="path249"
         sodipodi:nodetypes="ccccc" />
    </mask>
  </defs>
  <g
     inkscape:label="Layer 1"
     inkscape:groupmode="layer"
     id="layer1"
     transform="translate(-16.672344,-95.411335)">
    <path
       id="path305"
       style="opacity:1;fill:#3d5148;fill-opacity:1;stroke:#000000;stroke-width:0"
       d="m 25.209905,95.617743 c -0.09561,0.009 -0.191014,0.0233 -0.284632,0.0447 -2.001954,0.71917 -5.540822,0.38032 -7.159261,2.85429 -0.176974,0.60542 -0.352348,1.21034 -0.527983,1.811187 -0.09575,0.3283 -0.08651,0.68466 0.02607,1.00594 0.956432,2.62553 1.421789,6.03411 1.877575,8.83435 -0.406516,3.83576 -0.03818,2.85626 -0.510869,5.23883 -0.0069,0.0352 -0.01275,0.0708 -0.01738,0.10655 -0.35565,2.71669 -0.06393,4.49109 1.275145,7.29577 0.836838,2.03731 2.199873,2.647 3.837504,2.47974 2.367367,-0.37258 2.088021,-0.19962 4.74368,-0.86238 2.19951,-0.68127 3.523282,-2.3027 4.055221,-4.43246 0.695112,-2.13743 0.453004,-3.38559 0.307073,-4.89197 -0.04136,-2.43316 0.161061,-4.80333 1.110284,-6.67487 7.48e-4,-0.002 0.0015,-0.005 0.0022,-0.007 0.844,-1.68366 1.434905,-3.53506 1.679549,-5.49054 0.0034,-0.0222 0.0062,-0.0445 0.0087,-0.0669 0.112068,-1.34046 -0.02774,-2.52582 -0.0239,-3.528217 0.0017,-0.35584 -0.110334,-0.70021 -0.315052,-0.96878 l -1.512243,-1.98215 c -0.2121,-0.27842 -0.525242,-0.39088 -0.829997,-0.49553 -2.340982,-0.61282 -5.449819,-0.55609 -7.741724,-0.27021 z"
       sodipodi:nodetypes="aaccccccccccccccccccaa" />
    <path
       id="path304"
       style="opacity:1;fill:#6b8e7f;stroke:#000000;stroke-width:0"
       d="m 25.144266,96.931043 c -0.100776,0.009 -0.201337,0.0232 -0.300014,0.0447 -2.110152,0.71916 -5.840283,0.38032 -7.546191,2.85428 -0.186539,0.605427 -0.371392,1.210347 -0.556519,1.811187 -0.100923,0.32831 -0.09119,0.68466 0.02748,1.00594 1.008123,2.62553 1.498631,6.03412 1.97905,8.83436 -0.428486,3.83575 -0.04024,2.85625 -0.538479,5.23882 -0.0074,0.0352 -0.01343,0.0708 -0.01832,0.10655 -0.374871,2.71669 -0.06739,4.49109 1.344061,7.29577 0.882066,2.03731 2.318768,2.647 4.044906,2.47975 2.495314,-0.37258 2.200871,-0.19963 5.000057,-0.86238 2.318385,-0.68127 3.713702,-2.3027 4.274391,-4.43247 0.73268,-2.13742 0.477487,-3.38558 0.323669,-4.89197 -0.0436,-2.43315 0.169765,-4.80332 1.17029,-6.67486 7.88e-4,-0.002 0.0016,-0.005 0.0023,-0.007 0.889615,-1.68366 1.512456,-3.53507 1.770322,-5.49054 0.0036,-0.0222 0.0065,-0.0445 0.0091,-0.0669 0.118125,-1.34047 -0.02925,-2.52583 -0.02519,-3.52822 0.0018,-0.35584 -0.116297,-0.700217 -0.332079,-0.968787 l -1.593974,-1.98214 c -0.223563,-0.27843 -0.553628,-0.39089 -0.874854,-0.49553 -2.467504,-0.61282 -5.744361,-0.55609 -8.160136,-0.27021 z"
       sodipodi:nodetypes="aaccccccccccccccccccaa" />
    <path
       style="opacity:1;fill:#f8e4f6;fill-opacity:1;stroke:#000000;stroke-width:0;stroke-dasharray:none;stroke-opacity:1"
       d="m 33.387494,105.08175 c -0.0041,0.93785 0.115336,1.8852 0.02655,2.81653 -0.207816,1.45669 -0.710728,2.8463 -1.439621,4.12139 -1.082224,1.87117 -1.257256,4.0866 -1.213399,6.20122 0.144625,1.40012 0.524353,2.85279 -0.0024,4.22395 -0.411466,1.49234 -1.413324,2.92814 -2.978731,3.35057 -1.416648,0.40554 -2.874037,0.71282 -4.341671,0.85236 -1.167266,0.10454 -2.463493,-0.35217 -2.977642,-1.48157 -1.093083,-1.96739 -1.046212,-4.32542 -0.72372,-6.48567 0.40637,-1.79621 1.239126,-3.58575 0.84184,-5.46788 -0.392635,-2.39919 -1.296072,-4.66973 -2.192243,-6.91655 0.166679,-0.50003 0.333358,-1.00007 0.500037,-1.5001 1.971789,-0.52033 3.938563,-1.07403 5.913478,-1.57356 1.346315,-0.0328 2.694959,-0.13034 4.039819,-0.12271 1.039686,0.11301 2.07937,0.22603 3.119055,0.33903 0.476225,0.54767 0.952449,1.09533 1.428673,1.64299 z"
       id="path303" />
    <rect
       style="opacity:1;fill:#f8e4f6;fill-opacity:1;stroke:#000000;stroke-width:0;stroke-dasharray:none;stroke-opacity:1"
       id="rect287"
       width="4.7205052"
       height="8.714901"
       x="-34.744732"
       y="98.152695"
       ry="2.1333311"
       rx="1.5407207"
       transform="scale(-1,1)" />
    <rect
       style="opacity:1;fill:#f8e4f6;fill-opacity:1;stroke:#000000;stroke-width:0;stroke-dasharray:none;stroke-opacity:1"
       id="rect288"
       width="4.0976605"
       height="7.6076798"
       x="-30.581511"
       y="97.43837"
       ry="1.8622931"
       rx="1.3374312"
       transform="scale(-1,1)" />
    <rect
       style="opacity:1;fill:#f8e4f6;fill-opacity:1;stroke:#000000;stroke-width:0;stroke-dasharray:none;stroke-opacity:1"
       id="rect289"
       width="4.0976605"
       height="6.3218751"
       x="-27.729538"
       y="98.724174"
       ry="1.5475394"
       rx="1.3374312"
       transform="scale(-1,1)" />
    <rect
       style="opacity:1;fill:#f8e4f6;fill-opacity:1;stroke:#000000;stroke-width:0;stroke-dasharray:none;stroke-opacity:1"
       id="rect290"
       width="4.0976605"
       height="5.6432552"
       x="-24.812002"
       y="99.402794"
       ry="1.3814193"
       rx="1.3374312"
       transform="scale(-1,1)" />
    <rect
       style="opacity:1;fill:#f8e4f6;fill-opacity:1;stroke:#000000;stroke-width:0;stroke-dasharray:none;stroke-opacity:1"
       id="rect291"
       width="3.015878"
       height="6.125432"
       x="-21.402748"
       y="100.83146"
       ry="1.4994519"
       rx="0.98434925"
       transform="scale(-1,1)" />
    <rect
       style="opacity:1;fill:#f6f5f6;fill-opacity:1;stroke:#000000;stroke-width:0;stroke-dasharray:none;stroke-opacity:1"
       id="rect292"
       width="2.8355818"
       height="1.8215573"
       x="-33.843246"
       y="98.492004"
       rx="0.49635181"
       ry="1.8215573"
       transform="scale(-1,1)" />
    <rect
       style="opacity:1;fill:#f6f5f6;fill-opacity:1;stroke:#000000;stroke-width:0;stroke-dasharray:none;stroke-opacity:1"
       id="rect293"
       width="2.3766434"
       height="1.5267388"
       x="-29.712805"
       y="97.925079"
       rx="0.41601744"
       ry="1.5267388"
       transform="scale(-1,1)" />
    <rect
       style="opacity:1;fill:#f6f5f6;fill-opacity:1;stroke:#000000;stroke-width:0;stroke-dasharray:none;stroke-opacity:1"
       id="rect294"
       width="2.3766434"
       height="1.5267388"
       x="-26.631363"
       y="99.121597"
       rx="0.41601744"
       ry="1.5267388"
       transform="scale(-1,1)" />
    <rect
       style="opacity:1;fill:#f6f5f6;fill-opacity:1;stroke:#000000;stroke-width:0;stroke-dasharray:none;stroke-opacity:1"
       id="rect295"
       width="2.3766434"
       height="1.5267388"
       x="-23.631876"
       y="99.871628"
       rx="0.41601744"
       ry="1.5267388"
       transform="scale(-1,1)" />
    <rect
       style="opacity:1;fill:#f6f5f6;fill-opacity:1;stroke:#000000;stroke-width:0;stroke-dasharray:none;stroke-opacity:1"
       id="rect296"
       width="1.9177054"
       height="1.1338539"
       x="-20.69795"
       y="101.21102"
       rx="0.33568302"
       ry="1.1338539"
       transform="scale(-1,1)" />
    <path
       id="path296"
       style="opacity:1;fill:#e0bbde;fill-opacity:1;stroke:#000000;stroke-width:0"
       d="m 34.478938,100.72305 c 0.0258,0.0138 0.04297,0.0478 0.04336,0.086 0,0 0.110772,2.64899 0.01132,3.96271 -9.37e-4,0.012 -0.0029,0.0246 -0.0057,0.0365 -0.08962,0.39264 -0.19475,0.78435 -0.346899,1.13817 -0.0062,0.0144 -0.0139,0.0277 -0.02262,0.0391 -0.128139,0.16955 -0.275197,0.31347 -0.429851,0.43334 -0.0101,0.008 -0.02087,0.0143 -0.03205,0.0183 -0.25599,0.0924 -0.788062,0.13058 -0.788062,0.13058 -0.08419,0.0182 -0.110479,-0.15158 -0.02828,-0.18272 0,0 0.506162,-0.15288 0.725847,-0.33154 0.109684,-0.0892 0.207044,-0.21425 0.280912,-0.35764 0.151329,-0.29376 0.257953,-0.63926 0.312961,-0.99197 0.186531,-1.19598 0.03582,-3.67034 0.03582,-3.67034 3.95e-4,-0.0233 0.0072,-0.0459 0.01885,-0.0627 l 0.150825,-0.2245 c 0.01877,-0.0278 0.04784,-0.0371 0.07353,-0.0236 z"
       sodipodi:nodetypes="ccaaaaaaccaaaccccc" />
    <path
       id="path297"
       style="opacity:1;fill:#e0bbde;fill-opacity:1;stroke:#000000;stroke-width:0"
       d="m 30.41392,99.372503 c 0.02144,0.0127 0.03571,0.0443 0.03602,0.0795 0,0 0.09204,2.448197 0.0094,3.662337 -7.79e-4,0.0112 -0.0025,0.0227 -0.0047,0.0338 -0.07446,0.36289 -0.161818,0.7249 -0.288241,1.05189 -0.0052,0.0134 -0.01156,0.0256 -0.0188,0.0362 -0.106473,0.15668 -0.228666,0.2897 -0.357168,0.40048 -0.0084,0.007 -0.01734,0.0133 -0.02663,0.0169 -0.212704,0.0855 -0.654808,0.12068 -0.654808,0.12068 -0.06995,0.0168 -0.09179,-0.1401 -0.02351,-0.16888 0,0 0.420575,-0.14129 0.603113,-0.3064 0.09114,-0.0824 0.172035,-0.19801 0.233412,-0.33053 0.125741,-0.2715 0.214337,-0.59081 0.260044,-0.91678 0.15499,-1.10533 0.02976,-3.392117 0.02976,-3.392117 3.28e-4,-0.0217 0.0059,-0.0424 0.01567,-0.058 l 0.125323,-0.20748 c 0.0156,-0.0257 0.03974,-0.0344 0.06109,-0.0218 z"
       sodipodi:nodetypes="ccaaaaaaccaaaccccc" />
    <path
       id="path298"
       style="opacity:1;fill:#e0bbde;fill-opacity:1;stroke:#000000;stroke-width:0"
       d="m 26.939104,100.31798 c 0.02144,0.0105 0.03571,0.0365 0.03602,0.0656 0,0 0.09204,2.01979 0.0094,3.02146 -7.79e-4,0.009 -0.0025,0.0187 -0.0047,0.0279 -0.07446,0.29938 -0.161819,0.59805 -0.28824,0.86781 -0.0052,0.011 -0.01156,0.021 -0.01881,0.0299 -0.106473,0.12927 -0.228665,0.23901 -0.357168,0.33041 -0.0084,0.006 -0.01734,0.0109 -0.02663,0.014 -0.212705,0.0706 -0.654808,0.0996 -0.654808,0.0996 -0.06995,0.0139 -0.09179,-0.11559 -0.02351,-0.13933 0,0 0.420575,-0.11657 0.603112,-0.25279 0.09114,-0.0679 0.172036,-0.16336 0.233412,-0.27269 0.125742,-0.22398 0.214338,-0.48743 0.260044,-0.75635 0.154991,-0.91191 0.02976,-2.79854 0.02976,-2.79854 3.28e-4,-0.0179 0.0059,-0.0349 0.01567,-0.0479 l 0.125323,-0.17117 c 0.0156,-0.0211 0.03974,-0.0284 0.06109,-0.018 z"
       sodipodi:nodetypes="ccaaaaaaccaaaccccc" />
    <path
       id="path299"
       style="opacity:1;fill:#e0bbde;fill-opacity:1;stroke:#000000;stroke-width:0"
       d="m 23.988788,101.12075 c 0.02143,0.008 0.03571,0.03 0.03602,0.0538 0,0 0.09204,1.65605 0.0094,2.47734 -7.79e-4,0.007 -0.0025,0.0153 -0.0047,0.0228 -0.07446,0.24547 -0.161819,0.49035 -0.288241,0.71154 -0.0052,0.009 -0.01156,0.0173 -0.0188,0.0245 -0.106473,0.10599 -0.228665,0.19596 -0.357168,0.27091 -0.0084,0.005 -0.01734,0.009 -0.02663,0.0115 -0.212705,0.0579 -0.654808,0.0817 -0.654808,0.0817 -0.06995,0.0114 -0.0918,-0.0948 -0.02351,-0.11424 0,0 0.420575,-0.0956 0.603112,-0.20726 0.09114,-0.0557 0.172036,-0.13395 0.233412,-0.22358 0.125742,-0.18365 0.214338,-0.39965 0.260044,-0.62015 0.154991,-0.74768 0.02976,-2.29455 0.02976,-2.29455 3.28e-4,-0.0146 0.0059,-0.0286 0.01567,-0.0392 l 0.125323,-0.14034 c 0.0156,-0.0174 0.03974,-0.0233 0.06109,-0.0147 z"
       sodipodi:nodetypes="ccaaaaaaccaaaccccc" />
    <path
       id="path300"
       style="opacity:1;fill:#e0bbde;fill-opacity:1;stroke:#000000;stroke-width:0"
       d="m 21.224045,102.28035 c 0.01562,0.005 0.02601,0.0205 0.02625,0.0368 0,0 0.06707,1.13064 0.0068,1.69136 -5.68e-4,0.005 -0.0018,0.0105 -0.0035,0.0156 -0.05426,0.16759 -0.117913,0.33477 -0.210033,0.48579 -0.0038,0.006 -0.0084,0.0118 -0.0137,0.0167 -0.07758,0.0724 -0.166621,0.13379 -0.260257,0.18497 -0.0061,0.003 -0.01263,0.006 -0.0194,0.007 -0.154992,0.0394 -0.47714,0.0557 -0.47714,0.0557 -0.05098,0.007 -0.06689,-0.0647 -0.01712,-0.078 0,0 0.306461,-0.0653 0.439471,-0.14151 0.0664,-0.0381 0.125356,-0.0915 0.17008,-0.15264 0.09163,-0.12539 0.156182,-0.27286 0.189486,-0.42341 0.112938,-0.51046 0.02169,-1.56657 0.02169,-1.56657 2.38e-4,-0.009 0.0042,-0.0196 0.01142,-0.0268 l 0.09132,-0.0958 c 0.01137,-0.0119 0.02896,-0.0159 0.04452,-0.0105 z"
       sodipodi:nodetypes="ccaaaaaaccaaaccccc" />
    <path
       style="opacity:1;fill:#3d5148;fill-opacity:1;stroke:#000000;stroke-width:0;stroke-dasharray:none;stroke-opacity:1"
       d="m 34.78045,106.18598 -0.34312,-0.70916 c 0,0 -1.717699,-0.87845 -2.620184,-1.16801 -1.342109,-0.43062 -2.725401,-0.75396 -4.117434,-0.83431 -0.97884,-0.0565 -1.957834,0.12833 -2.932112,0.25029 -0.929437,0.11634 -1.864923,0.2191 -2.776149,0.45886 -0.818906,0.21546 -1.623484,0.51359 -2.401835,0.87602 -0.37698,0.17553 -1.091743,0.62573 -1.091743,0.62573 l -0.09358,2.87834 0.311925,0.37543 h 0.842199 c 0,0 1.60203,-0.94033 2.464222,-1.20974 1.011321,-0.316 2.072017,-0.40516 3.119268,-0.45886 0.63408,-0.0325 1.269268,0.0382 1.902754,0.0834 0.562473,0.0402 1.125118,0.0875 1.684404,0.16686 0.679423,0.0964 1.360628,0.19822 2.027524,0.37543 0.487052,0.12943 0.954904,0.34015 1.434864,0.50059 0.476693,0.15936 1.434863,0.45887 1.434863,0.45887 l 0.592662,-0.12515 0.311926,-0.83431 z"
       id="path301"
       sodipodi:nodetypes="ccaaaaaccccaaaaaacccc" />
    <path
       style="opacity:1;fill:#6b8e7f;fill-opacity:1;stroke:#000000;stroke-width:0;stroke-dasharray:none;stroke-opacity:1"
       d="m 34.849502,106.99416 -0.345638,-0.70915 c 0,0 -1.730311,-0.87845 -2.639424,-1.16801 -1.351964,-0.43062 -2.745413,-0.75396 -4.147669,-0.83431 -0.986028,-0.0565 -1.972209,0.12833 -2.953641,0.25028 -0.936261,0.11635 -1.878615,0.21911 -2.796533,0.45886 -0.824919,0.21547 -1.635405,0.5136 -2.419471,0.87602 -0.379748,0.17553 -1.09976,0.62573 -1.09976,0.62573 l -0.09428,2.87834 0.314218,0.37544 h 0.848386 c 0,0 1.613793,-0.94034 2.482316,-1.20975 1.018748,-0.316 2.087231,-0.40515 3.142174,-0.45885 0.638733,-0.0325 1.278585,0.0382 1.916724,0.0834 0.566601,0.0402 1.133379,0.0875 1.696771,0.16686 0.684413,0.0964 1.370617,0.19821 2.042413,0.37543 0.490627,0.12942 0.961916,0.34015 1.445399,0.50059 0.480192,0.15935 1.4454,0.45886 1.4454,0.45886 l 0.597013,-0.12514 0.314217,-0.83431 z"
       id="path302"
       sodipodi:nodetypes="ccaaaaaccccaaaaaacccc" />
    <path
       style="opacity:1;fill:#3d5148;fill-opacity:1;stroke:#000000;stroke-width:0;stroke-dasharray:none;stroke-opacity:1"
       d="m 18.771236,114.18655 0.303004,-0.70916 c 0,0 1.516871,-0.87845 2.313841,-1.16801 1.185193,-0.43062 2.406756,-0.75396 3.636037,-0.83431 0.864397,-0.0565 1.72893,0.12833 2.589299,0.25029 0.820768,0.11634 1.646881,0.21911 2.45157,0.45886 0.723162,0.21546 1.433671,0.51359 2.12102,0.87602 0.332904,0.17553 0.9641,0.62573 0.9641,0.62573 l 0.08264,2.87834 -0.275456,0.37543 h -0.743732 c 0,0 -1.414725,-0.94033 -2.176113,-1.20974 -0.893081,-0.316 -1.829763,-0.40516 -2.754573,-0.45886 -0.559946,-0.0325 -1.120869,0.0382 -1.68029,0.0834 -0.49671,0.0402 -0.993573,0.0875 -1.487469,0.16685 -0.599987,0.0964 -1.201548,0.19822 -1.790472,0.37543 -0.430108,0.12943 -0.843261,0.34015 -1.267105,0.50059 -0.42096,0.15936 -1.267103,0.45887 -1.267103,0.45887 l -0.52337,-0.12515 -0.275457,-0.83431 z"
       id="path306"
       sodipodi:nodetypes="ccaaaaaccccaaaaaacccc" />
    <path
       style="opacity:1;fill:#6b8e7f;fill-opacity:1;stroke:#000000;stroke-width:0;stroke-dasharray:none;stroke-opacity:1"
       d="m 18.710257,114.99473 0.305229,-0.70915 c 0,0 1.528007,-0.87845 2.33083,-1.16801 1.193897,-0.43062 2.424428,-0.75396 3.662737,-0.83431 0.870745,-0.0565 1.741625,0.12833 2.608311,0.25028 0.826796,0.11635 1.658974,0.21911 2.469571,0.45886 0.728472,0.21547 1.444198,0.5136 2.136595,0.87602 0.335349,0.17553 0.971178,0.62573 0.971178,0.62573 l 0.08325,2.87834 -0.277481,0.37544 h -0.749196 c 0,0 -1.425113,-0.94034 -2.192091,-1.20975 -0.899639,-0.316 -1.843199,-0.40515 -2.774802,-0.45885 -0.564055,-0.0325 -1.129096,0.0382 -1.692626,0.0834 -0.500357,0.0402 -1.000869,0.0875 -1.498391,0.16686 -0.604394,0.0964 -1.210368,0.19821 -1.80362,0.37543 -0.433265,0.12942 -0.849451,0.34015 -1.276408,0.50059 -0.42405,0.15935 -1.276408,0.45886 -1.276408,0.45886 l -0.527212,-0.12514 -0.27748,-0.83431 z"
       id="path307"
       sodipodi:nodetypes="ccaaaaaccccaaaaaacccc" />
  </g>
</svg>
