<?xml version="1.0" encoding="UTF-8" standalone="no"?>
<!-- Created with Inkscape (http://www.inkscape.org/) -->

<svg
   width="210mm"
   height="297mm"
   viewBox="0 0 210 297"
   version="1.1"
   id="svg1"
   inkscape:version="1.4.2 (f4327f4, 2025-05-13)"
   sodipodi:docname="PlayerBodyRight.svg"
   xmlns:inkscape="http://www.inkscape.org/namespaces/inkscape"
   xmlns:sodipodi="http://sodipodi.sourceforge.net/DTD/sodipodi-0.dtd"
   xmlns="http://www.w3.org/2000/svg"
   xmlns:svg="http://www.w3.org/2000/svg">
  <sodipodi:namedview
     id="namedview1"
     pagecolor="#ffffff"
     bordercolor="#000000"
     borderopacity="0.25"
     inkscape:showpageshadow="2"
     inkscape:pageopacity="0.0"
     inkscape:pagecheckerboard="0"
     inkscape:deskcolor="#d1d1d1"
     inkscape:document-units="mm"
     inkscape:zoom="0.48693448"
     inkscape:cx="1054.5567"
     inkscape:cy="584.26751"
     inkscape:window-width="1920"
     inkscape:window-height="991"
     inkscape:window-x="-9"
     inkscape:window-y="-9"
     inkscape:window-maximized="1"
     inkscape:current-layer="layer1" />
  <defs
     id="defs1">
    <mask
       maskUnits="userSpaceOnUse"
       id="mask248">
      <path
         style="fill:#484d71;fill-opacity:1;stroke:#000000;stroke-width:0;stroke-dasharray:none;stroke-opacity:1"
         d="M 195.09349,211.31953 94.488312,230.04044 64.513701,191.89933 173.16787,182.88745 Z"
         id="path249"
         sodipodi:nodetypes="ccccc" />
    </mask>
  </defs>
  <g
     inkscape:label="Layer 1"
     inkscape:groupmode="layer"
     id="layer1">
    <rect
       style="opacity:1;fill:#262626;fill-opacity:1;stroke:#000000;stroke-width:0;stroke-dasharray:none;stroke-opacity:1"
       id="rect278"
       width="15.757595"
       height="72.333221"
       x="97.014229"
       y="188.54778"
       ry="7.8787975" />
    <rect
       style="opacity:1;fill:#4c4c4c;fill-opacity:1;stroke:#000000;stroke-width:0;stroke-dasharray:none;stroke-opacity:1"
       id="rect280"
       width="11.185603"
       height="54.873478"
       x="99.300224"
       y="196.45906"
       ry="5.9770188" />
    <ellipse
       style="opacity:1;fill:#bf62b6;fill-opacity:1;stroke:#000000;stroke-width:0;stroke-dasharray:none;stroke-opacity:1"
       id="path278"
       cx="123.99162"
       cy="163.28143"
       rx="49.038727"
       ry="25.343901"
       transform="rotate(6.4754712)" />
    <path
       style="opacity:1;fill:#bf62b6;fill-opacity:1;stroke:#000000;stroke-width:0;stroke-dasharray:none;stroke-opacity:1"
       d="m 165.36249,143.20053 -10.57837,-3.78229 -8.91188,1.24254 4.05216,6.51341 z"
       id="path275" />
    <path
       d="m 146.45133,144.68729 c 0.24592,-0.61766 0.47023,-1.22867 0.66976,-1.83004 2.78733,-8.40104 4.45103,-31.82169 4.45103,-31.82169 l 5.6694,1.50203 c 0,0 6.27128,19.01357 5.5497,33.97771 -0.005,0.10468 -0.0113,0.20937 -0.0189,0.31433 a 30.257114,31.505821 1.450279 0 1 -5.25711,0.34455 30.257114,31.505821 1.450279 0 1 -11.06396,-2.48689 z"
       style="opacity:1;fill:#f8e4f6;stroke:#000000;stroke-width:0"
       id="path276" />
    <path
       d="m 145.87224,140.66078 a 36.131504,37.284803 1.450279 0 0 13.21261,2.94607 36.131504,37.284803 1.450279 0 0 6.27764,-0.40632 c -1.10541,15.82599 -23.76162,34.24115 -23.76162,34.24115 l -14.73184,-7.77025 c 0,0 13.70621,-15.81918 19.00321,-29.01065 z"
       style="opacity:1;fill:#cc83c5;fill-opacity:1;stroke:#000000;stroke-width:0"
       id="path277" />
    <path
       style="opacity:1;fill:#bf62b6;fill-opacity:1;stroke:#000000;stroke-width:0;stroke-dasharray:none;stroke-opacity:1"
       d="m 46.407394,126.85624 10.862817,-4.28179 8.685474,2.23613 -4.023595,5.64033 z"
       id="path274"
       sodipodi:nodetypes="ccccc" />
    <path
       d="m 66.320734,127.56333 c -0.240988,-0.62368 -0.459557,-1.24018 -0.65243,-1.8464 -2.69447,-8.4689 -11.657813,-27.601722 -11.657813,-27.601722 l -5.97304,1.35806 c 0,0 0.775847,14.526322 1.134528,29.503932 0.0025,0.10477 0.0065,0.2096 0.01136,0.31471 1.813448,0.31766 3.65129,0.47742 5.492644,0.47749 3.986571,6e-5 7.937324,-0.7484 11.644751,-2.20607 z"
       style="opacity:1;fill:#f8e4f6;stroke:#000000;stroke-width:0"
       id="path273"
       sodipodi:nodetypes="ccccsccc" />
    <path
       d="m 65.955685,124.81058 a 36.131504,37.284803 0 0 1 -13.28294,2.61073 36.131504,37.284803 0 0 1 -6.265351,-0.56507 c 0.704511,15.8489 22.887385,34.83157 22.887385,34.83157 l 14.923792,-7.3949 c 0,0 -13.301457,-16.16101 -18.262886,-29.48233 z"
       style="opacity:1;fill:#cc83c5;fill-opacity:1;stroke:#000000;stroke-width:0"
       id="path272" />
    <rect
       style="opacity:1;fill:#4c324a;fill-opacity:1;stroke:#000000;stroke-width:0;stroke-dasharray:none;stroke-opacity:1"
       id="rect267"
       width="85.036674"
       height="7.0637498"
       x="88.931702"
       y="68.183594"
       ry="0.47544289"
       transform="rotate(15.494814)" />
    <rect
       style="opacity:1;fill:#a577a2;fill-opacity:1;stroke:#000000;stroke-width:0;stroke-dasharray:none;stroke-opacity:1"
       id="rect257"
       width="37.131439"
       height="11.415511"
       x="53.341274"
       y="65.610329"
       ry="2.0180497"
       transform="rotate(15.494814)" />
    <rect
       style="opacity:1;fill:#684566;fill-opacity:1;stroke:#000000;stroke-width:0;stroke-dasharray:none;stroke-opacity:1"
       id="rect260"
       width="29.341734"
       height="2.3093109"
       x="58.027805"
       y="69.27034"
       ry="0.50940502"
       transform="rotate(15.494814)" />
    <rect
       style="opacity:1;fill:#684566;fill-opacity:1;stroke:#000000;stroke-width:0;stroke-dasharray:none;stroke-opacity:1"
       id="rect261"
       width="28.526684"
       height="2.1734657"
       x="57.756123"
       y="73.209763"
       ry="0.50940502"
       transform="rotate(15.494814)" />
    <rect
       style="opacity:1;fill:#684566;fill-opacity:1;stroke:#000000;stroke-width:0;stroke-dasharray:none;stroke-opacity:1"
       id="rect259"
       width="29.273813"
       height="1.2225685"
       x="58.095726"
       y="66.825188"
       ry="0.47544289"
       transform="rotate(15.494814)" />
    <rect
       style="opacity:1;fill:#4c324a;fill-opacity:1;stroke:#000000;stroke-width:0;stroke-dasharray:none;stroke-opacity:1"
       id="rect258"
       width="5.7053361"
       height="13.051581"
       x="53.069588"
       y="64.724388"
       ry="2.0180497"
       transform="rotate(15.494814)" />
    <rect
       style="opacity:1;fill:#a577a2;fill-opacity:1;stroke:#000000;stroke-width:0;stroke-dasharray:none;stroke-opacity:1"
       id="rect262"
       width="37.131439"
       height="11.415511"
       x="-208.79053"
       y="66.01786"
       ry="2.0180497"
       transform="matrix(-0.96365464,-0.26715114,-0.26715114,0.96365464,0,0)" />
    <rect
       style="opacity:1;fill:#684566;fill-opacity:1;stroke:#000000;stroke-width:0;stroke-dasharray:none;stroke-opacity:1"
       id="rect263"
       width="29.341734"
       height="2.3093109"
       x="-204.10399"
       y="69.677872"
       ry="0.50940502"
       transform="matrix(-0.96365464,-0.26715114,-0.26715114,0.96365464,0,0)" />
    <rect
       style="opacity:1;fill:#684566;fill-opacity:1;stroke:#000000;stroke-width:0;stroke-dasharray:none;stroke-opacity:1"
       id="rect264"
       width="28.526684"
       height="2.1734657"
       x="-204.37569"
       y="73.617294"
       ry="0.50940502"
       transform="matrix(-0.96365464,-0.26715114,-0.26715114,0.96365464,0,0)" />
    <rect
       style="opacity:1;fill:#684566;fill-opacity:1;stroke:#000000;stroke-width:0;stroke-dasharray:none;stroke-opacity:1"
       id="rect265"
       width="29.273813"
       height="1.2225685"
       x="-204.03607"
       y="67.232719"
       ry="0.47544289"
       transform="matrix(-0.96365464,-0.26715114,-0.26715114,0.96365464,0,0)" />
    <rect
       style="opacity:1;fill:#4c324a;fill-opacity:1;stroke:#000000;stroke-width:0;stroke-dasharray:none;stroke-opacity:1"
       id="rect266"
       width="5.7053361"
       height="13.051581"
       x="-209.06221"
       y="65.13192"
       ry="2.0180497"
       transform="matrix(-0.96365464,-0.26715114,-0.26715114,0.96365464,0,0)" />
    <rect
       style="opacity:1;fill:#262626;fill-opacity:1;stroke:#000000;stroke-width:0;stroke-dasharray:none;stroke-opacity:1"
       id="rect256"
       width="15.757595"
       height="72.333221"
       x="97.014229"
       y="44.555958"
       ry="7.8787975" />
    <rect
       style="opacity:1;fill:#4c4c4c;fill-opacity:1;stroke:#000000;stroke-width:0;stroke-dasharray:none;stroke-opacity:1"
       id="rect279"
       width="11.185603"
       height="54.873478"
       x="99.300224"
       y="50.840687"
       ry="5.9770188" />
    <path
       id="path250"
       style="opacity:1;fill:#64492c;fill-opacity:1;stroke:#000000;stroke-width:0;stroke-dasharray:none;stroke-opacity:1"
       d="m 112.41132,140.08137 v 0.11627 l -32.770611,3.18068 c 0,0 -2.60861,12.73237 -5.266862,18.60352 -3.196358,7.05964 -12.631787,19.51767 -12.631787,19.51767 0,0 6.095102,-1.67475 10.997261,-3.28352 3.251731,0.69575 7.16904,1.37979 10.575582,1.54099 l -11.413774,20.86798 c 0,0 16.861471,-5.51616 24.594365,-11.05411 0.03006,1.77981 0.24861,3.42509 0.752925,4.73925 2.05045,5.34311 12.519651,11.74863 12.519651,11.74863 0,0 0.8039,-11.30566 3.75275,-15.87345 1.39078,-2.15434 3.95713,-4.44573 6.68951,-6.50554 1.41946,1.28255 2.63791,2.59192 3.45302,3.85454 2.94884,4.56779 3.75274,15.87345 3.75274,15.87345 0,0 10.4692,-6.40553 12.51965,-11.74864 7.32506,5.72038 25.34729,11.61635 25.34729,11.61635 l -14.31851,-26.17928 c 1.24775,0.0833 2.64617,0.0488 4.10931,-0.0662 2.03628,0.9697 4.22076,1.96792 5.81567,2.58641 4.7371,1.837 14.5526,4.53357 14.5526,4.53357 l -6.78512,-9.56841 -1.63349,-2.50217 c 0,0 -3.23984,-5.29734 -4.21318,-7.44709 -2.65825,-5.87115 -5.26686,-18.60351 -5.26686,-18.60351 l -10.96936,-1.06454 c -0.13175,-0.98959 -0.19223,-1.58595 -0.19223,-1.58595 l -32.77061,-3.18063 v -0.11627 l -0.59996,0.0584 z"
       sodipodi:nodetypes="cccscccccscscscccccscccsccccccc" />
    <path
       style="opacity:1;fill:#503a23;fill-opacity:1;stroke:#000000;stroke-width:0;stroke-dasharray:none;stroke-opacity:1"
       d="m 70.722109,173.07005 6.112859,-5.95206 3.260193,-6.70626 1.765912,-10.13802 4.714996,8.0384 -0.77557,6.63242 -2.580987,7.47127 -5.841177,1.90178 -8.829688,1.9697 z"
       id="path256" />
    <ellipse
       style="opacity:1;fill:#f8e4f6;fill-opacity:1;stroke:#000000;stroke-width:0;stroke-dasharray:none;stroke-opacity:1"
       id="ellipse268"
       cx="-195.72232"
       cy="75.630951"
       rx="8.2863216"
       ry="8.7617664"
       transform="matrix(-0.96365464,-0.26715114,-0.26715114,0.96365464,0,0)" />
    <path
       style="fill:#484d71;fill-opacity:1;stroke:#000000;stroke-width:0;stroke-dasharray:none;stroke-opacity:1"
       d="m 163.95149,121.15443 30.09656,3.52829 c 0,0 7.86516,14.13116 6.26005,21.6409 -2.53922,11.88017 -11.2697,19.8646 -11.2697,19.8646 L 132.91526,150.5951"
       id="path246"
       sodipodi:nodetypes="ccscc" />
    <ellipse
       style="opacity:1;fill:#ffffff;fill-opacity:1;stroke:#000000;stroke-width:0;stroke-dasharray:none;stroke-opacity:1"
       id="ellipse269"
       cx="-193.07343"
       cy="73.32164"
       rx="3.4639542"
       ry="4.2790022"
       transform="matrix(-0.96365464,-0.26715114,-0.26715114,0.96365464,0,0)" />
    <path
       style="fill:#6871bf;fill-opacity:1;stroke:#000000;stroke-width:0;stroke-dasharray:none;stroke-opacity:1"
       d="m 166.8299,116.10941 29.51143,3.2936 c 0,0 7.62011,14.03288 5.99251,21.53361 -2.57479,11.8659 -11.19836,19.8932 -11.19836,19.8932 l -54.96913,-15.13026"
       id="path245"
       sodipodi:nodetypes="ccscc" />
    <path
       style="opacity:1;fill:#503a23;fill-opacity:1;stroke:#000000;stroke-width:0;stroke-dasharray:none;stroke-opacity:1"
       d="m 125.97687,165.34446 -1.05406,6.12045 -2.04298,7.60712 3.80891,4.41484 2.98851,4.95821 -0.40752,5.43365 3.39603,-2.03762 1.49426,-5.56949 -5.5695,-7.8788 -0.6792,-6.11286 2.85266,-11.39354 z"
       id="path255" />
    <path
       id="path240"
       style="fill:#434660;fill-opacity:1;stroke-width:0.264583"
       d="m 122.23888,96.796989 c -9.92845,-1.270538 -22.03157,-2.3942 -30.81364,0.145246 -11.302994,5.096555 -23.503383,10.604925 -24.752336,20.090885 7.25e-4,-5.3e-4 0,0 0,0 -1.467307,11.74559 6.244805,23.81482 20.41504,31.94895 0,0 0.03531,-0.0725 0.102916,-0.20982 7.747371,4.57644 17.09743,7.72174 26.96986,9.00616 9.61268,1.20942 19.25319,0.59564 27.82137,-1.77124 15.76194,-4.30354 26.26486,-14.0417 27.8027,-25.77826 0,0 -5.7e-4,-7e-4 0,0 1.18011,-9.49477 -9.23994,-17.898 -18.89521,-25.6767 -7.22287,-5.771572 -15.74959,-6.081432 -28.6507,-7.755221 z"
       sodipodi:nodetypes="sccccccccccss" />
    <path
       id="path1"
       style="fill:#df7c7c;fill-opacity:1;stroke-width:0.264583"
       d="m 121.34117,98.467835 -17.37886,8.300705 -22.114179,32.68847 c 8.650558,6.79968 20.390529,11.46332 32.980429,13.10129 9.61268,1.20942 19.2532,0.59563 27.82137,-1.77125 0,0 -4.67033,-22.92639 -7.928,-31.15211 -3.55921,-8.98716 -13.38076,-21.167105 -13.38076,-21.167105 z"
       sodipodi:nodetypes="cccccsc" />
    <path
       id="path8"
       style="fill:#df7c7c;fill-opacity:1;stroke-width:0.264583"
       d="m 122.90658,91.576793 c -9.92847,-1.270541 -22.03121,-2.393937 -30.813274,0.145506 l 29.247864,6.745536 30.21619,0.864402 c -7.22286,-5.771572 -15.74968,-6.081655 -28.65078,-7.755444 z"
       sodipodi:nodetypes="ccccc" />
    <path
       style="opacity:1;fill:#1b1b1b;fill-opacity:1;stroke:#000000;stroke-width:0;stroke-dasharray:none;stroke-opacity:1"
       d="m 135.38561,204.04273 31.51345,-7.94179 c 0,0 13.19722,10.20419 14.40814,17.78398 1.91565,11.99097 -3.84217,22.6688 -3.84217,22.6688 l -62.15114,6.43019"
       id="path247"
       sodipodi:nodetypes="ccscc"
       mask="url(#mask248)"
       transform="matrix(0.72358014,0.29021564,-0.29877497,0.79780807,131.00095,-84.072173)" />
    <path
       id="path12"
       style="fill:#f3e9a6;fill-opacity:1;stroke-width:0.264583"
       d="m 170.45263,125.0088 c 0,0 -7.25611,-8.60664 -18.92463,-14.74732 -15.81696,-8.32384 -29.45142,-12.199142 -29.45142,-12.199142 l -0.73541,0.405497 c 0,0 9.82155,12.179945 13.38076,21.167105 3.25767,8.22572 7.928,31.15211 7.928,31.15211 15.76195,-4.30354 26.26487,-14.04169 27.8027,-25.77825 z"
       sodipodi:nodetypes="csccscc" />
    <path
       id="path13"
       style="fill:#6a72bd;fill-opacity:1;stroke-width:0.264583"
       d="m 151.55736,99.332237 -29.48078,-1.269899 c 0,0 16.54939,5.544812 29.45142,12.199142 11.94761,6.16208 18.92463,14.74732 18.92463,14.74732 1.18012,-9.49478 -9.23999,-17.89787 -18.89527,-25.676563 z"
       sodipodi:nodetypes="ccscc" />
    <path
       id="path14"
       style="fill:#f3e9a6;fill-opacity:1;stroke-width:0.264583"
       d="m 67.340947,111.81304 c 0,0 9.189643,-6.50199 22.028496,-9.50633 17.403387,-4.072448 31.574337,-4.389342 31.574337,-4.389342 l 0.6096,0.577625 c 0,0 -12.57226,9.314087 -18.27997,17.115307 -5.224135,7.14026 -15.517426,28.15167 -15.517426,28.15167 C 73.585749,135.62785 65.87364,123.55862 67.340947,111.81304 Z"
       sodipodi:nodetypes="csccscc" />
    <ellipse
       style="opacity:1;fill:#f8e4f6;fill-opacity:1;stroke:#000000;stroke-width:0;stroke-dasharray:none;stroke-opacity:1"
       id="path267"
       cx="74.415993"
       cy="75.630951"
       rx="8.2863216"
       ry="8.7617664"
       transform="rotate(15.494814)" />
    <path
       id="path15"
       style="fill:#6a72bd;fill-opacity:1;stroke-width:0.264583"
       d="m 92.093306,91.722299 28.850474,6.195069 c 0,0 -17.41237,1.19854 -31.574337,4.389342 -13.114339,2.95477 -22.028496,9.50633 -22.028496,9.50633 1.248953,-9.48597 13.449365,-14.994193 24.752359,-20.090741 z"
       sodipodi:nodetypes="ccscc" />
    <ellipse
       style="fill:#3cc5cf;fill-opacity:1;stroke:#000000;stroke-width:0;stroke-dasharray:none;stroke-opacity:1"
       id="path239"
       cx="132.85909"
       cy="82.940193"
       rx="4.2877502"
       ry="3.7344034"
       transform="rotate(7.2928115)" />
    <ellipse
       style="fill:#93dfe4;fill-opacity:1;stroke:#000000;stroke-width:0;stroke-dasharray:none;stroke-opacity:1"
       id="ellipse239"
       cx="133.53708"
       cy="82.268204"
       rx="3.0962968"
       ry="2.3080692"
       transform="rotate(7.2928115)" />
    <path
       style="opacity:1;fill:#503a23;fill-opacity:1;stroke:#000000;stroke-width:0;stroke-dasharray:none;stroke-opacity:1"
       d="m 106.31254,197.81813 -0.54337,-6.92791 1.90178,-9.78057 5.16197,-4.21109 3.53188,-5.43365 -0.13584,4.75445 -0.73318,5.29781 -3.74959,3.66772 -2.17346,3.66771 -1.90178,4.21108 z"
       id="path251" />
    <path
       style="opacity:1;fill:#503a23;fill-opacity:1;stroke:#000000;stroke-width:0;stroke-dasharray:none;stroke-opacity:1"
       d="m 153.99285,194.69378 -6.2487,-3.80356 -4.6186,-5.29781 -3.66772,-8.01464 -0.81505,-5.29781 -1.22257,4.07524 -0.13584,6.92791 2.3093,5.43365 5.32302,3.39603 z"
       id="path252" />
    <path
       style="opacity:1;fill:#503a23;fill-opacity:1;stroke:#000000;stroke-width:0;stroke-dasharray:none;stroke-opacity:1"
       d="m 167.16946,177.44193 -4.75445,-6.92791 -2.3093,-4.83963 -2.00598,-6.12268 -11.72966,0.83412 3.81923,5.28856 6.9279,6.60557 4.61861,2.85267 z"
       id="path253" />
    <path
       style="opacity:1;fill:#503a23;fill-opacity:1;stroke:#000000;stroke-width:0;stroke-dasharray:none;stroke-opacity:1"
       d="m 83.627037,187.22251 4.482764,-7.06376 2.580986,-7.0887 2.07359,-8.12552 1.594125,5.70534 -1.594125,9.37305 -2.07359,5.43365 -6.069092,2.17346 z"
       id="path254" />
    <ellipse
       style="opacity:1;fill:#ffffff;fill-opacity:1;stroke:#000000;stroke-width:0;stroke-dasharray:none;stroke-opacity:1"
       id="ellipse267"
       cx="77.064896"
       cy="73.32164"
       rx="3.4639542"
       ry="4.2790022"
       transform="rotate(15.494814)" />
  </g>
</svg>
