<?xml version="1.0" encoding="UTF-8" standalone="no"?>
<!-- Created with Inkscape (http://www.inkscape.org/) -->

<svg
   width="25836.91mm"
   height="20294.34mm"
   viewBox="0 0 25836.909 20294.34"
   version="1.1"
   id="svg1"
   inkscape:version="1.4.2 (f4327f4, 2025-05-13)"
   sodipodi:docname="Level002street.svg"
   xmlns:inkscape="http://www.inkscape.org/namespaces/inkscape"
   xmlns:sodipodi="http://sodipodi.sourceforge.net/DTD/sodipodi-0.dtd"
   xmlns="http://www.w3.org/2000/svg"
   xmlns:svg="http://www.w3.org/2000/svg">
  <sodipodi:namedview
     id="namedview1"
     pagecolor="#ffffff"
     bordercolor="#000000"
     borderopacity="0.25"
     inkscape:showpageshadow="2"
     inkscape:pageopacity="0.0"
     inkscape:pagecheckerboard="0"
     inkscape:deskcolor="#d1d1d1"
     inkscape:document-units="mm"
     inkscape:zoom="0.01"
     inkscape:cx="16650"
     inkscape:cy="32550"
     inkscape:window-width="3840"
     inkscape:window-height="2054"
     inkscape:window-x="-11"
     inkscape:window-y="-11"
     inkscape:window-maximized="1"
     inkscape:current-layer="layer1" />
  <defs
     id="defs1">
    <mask
       maskUnits="userSpaceOnUse"
       id="mask248">
      <path
         style="fill:#484d71;fill-opacity:1;stroke:#000000;stroke-width:0;stroke-dasharray:none;stroke-opacity:1"
         d="M 195.09349,211.31953 94.488312,230.04044 64.513701,191.89933 173.16787,182.88745 Z"
         id="path249"
         sodipodi:nodetypes="ccccc" />
    </mask>
    <mask
       maskUnits="userSpaceOnUse"
       id="mask248-5">
      <path
         style="fill:#484d71;fill-opacity:1;stroke:#000000;stroke-width:0;stroke-dasharray:none;stroke-opacity:1"
         d="M 195.09349,211.31953 94.488312,230.04044 64.513701,191.89933 173.16787,182.88745 Z"
         id="path249-1"
         sodipodi:nodetypes="ccccc" />
    </mask>
  </defs>
  <g
     inkscape:label="Layer 1"
     inkscape:groupmode="layer"
     id="layer1"
     transform="translate(-37.704593,1154.5939)">
    <g
       id="path9"
       style="opacity:1;stroke:#545454;stroke-width:3.6;stroke-dasharray:none;stroke-opacity:1"
       transform="matrix(14.999999,0,0,14.999999,-532.05115,16163.867)">
      <path
         style="baseline-shift:baseline;display:inline;overflow:visible;fill:#b8b8b8;fill-opacity:0;stroke:#545454;stroke-width:3.6;stroke-linecap:round;stroke-linejoin:round;stroke-dasharray:none;stroke-opacity:1;enable-background:accumulate;stop-color:#000000;stop-opacity:1"
         d="M 351.59753,77.498172 V -503.91926 c 0,0 -14.41941,-284.79306 107.59101,-364.82093 122.01041,-80.0279 137.53901,-91.46045 137.53901,-91.46045 0,0 144.19413,-102.89296 258.44026,-13.88237 114.24614,89.01058 298.37099,44.9136 298.37099,44.9136 0,0 368.2496,-108.60929 444.7834,41.64715 76.5338,150.25641 -173.0329,236.00059 -173.0329,236.00059 l -357.3911,151.91263 c 0,0 -308.86244,155.19062 -61.0878,296.46561 247.7746,141.274992 -21.73465,228.213447 -21.73465,228.213447"
         id="path11" />
      <path
         style="baseline-shift:baseline;display:inline;overflow:visible;fill:#7d7d7d;stroke:#545454;stroke-width:3.6;stroke-linecap:round;stroke-linejoin:round;stroke-dasharray:none;stroke-opacity:1;enable-background:accumulate;stop-color:#000000;stop-opacity:1"
         d="m 744.62305,-1023.2207 c -23.22351,0.3736 -45.39458,4.4717 -65.14258,10.1992 -52.66135,15.27329 -90.3125,42.22658 -90.3125,42.22658 a 13.017301,13.017301 0 0 0 -0.1582,0.11328 c 0,0 -15.00044,11.06471 -136.95899,91.05859 -67.12271,44.02647 -93.44308,138.82129 -105.29492,221.45508 -11.73412,81.81297 -8.24463,152.99076 -8.17383,154.40625 V 77.498047 a 13.016,13.016 0 0 0 13.01563,13.015625 13.016,13.016 0 0 0 13.01562,-13.015625 V -503.91992 a 13.017301,13.017301 0 0 0 -0.0156,-0.6582 c 0,0 -3.51528,-70.12288 7.92578,-149.89258 11.44106,-79.76971 38.91697,-167.38531 93.80468,-203.38672 122.06227,-80.06192 138.11719,-91.86133 138.11719,-91.86133 l -0.1582,0.11328 c 0,0 34.44611,-24.49351 82.44336,-38.41406 47.99725,-13.92057 107.3268,-17.17607 160.4375,24.20312 121.23866,94.45854 309.40231,47.30469 309.40231,47.30469 a 13.017301,13.017301 0 0 0 0.6504,-0.17383 c 0,0 91.1031,-26.80112 191.0781,-35.03515 49.9876,-4.11702 102.0673,-3.46913 145.1797,6.95312 43.1125,10.42226 76.3165,29.91488 93.2461,63.15235 17.6078,34.56873 16.2168,63.067 4.9043,89.18359 -11.3124,26.11659 -33.6736,49.61231 -59.0078,68.90039 -50.6683,38.57616 -111.5606,59.69922 -111.5606,59.69922 a 13.017301,13.017301 0 0 0 -0.8632,0.33203 l -357.3907,151.91211 a 13.017301,13.017301 0 0 0 -0.7519,0.34766 c 0,0 -78.79341,38.94838 -127.68554,98.63867 -24.44607,29.84514 -42.12639,66.25289 -35.37305,105.73047 6.75335,39.47758 37.52196,78.63217 101.36719,115.03515 60.5626,34.53132 87.3643,65.05227 95.2637,88.16211 7.8993,23.109848 -0.032,41.147423 -16.3282,58.781252 -32.5922,35.2676567 -98.2187,57.574219 -98.2187,57.574219 a 13.016,13.016 0 0 0 -8.39258,16.384765 13.016,13.016 0 0 0 16.38477,8.390625 c 0,0 69.12691,-21.161322 109.34571,-64.68164 20.1094,-21.76016 33.096,-51.944436 21.8418,-84.869141 -11.2543,-32.92471 -43.6773,-66.25124 -107.002,-102.35742 -60.04205,-34.23452 -83.58192,-67.4563 -88.60348,-96.81055 -5.02157,-29.35425 8.0558,-58.23382 29.85351,-84.8457 43.39975,-52.98487 118.33597,-91.40313 119.00977,-91.74805 l 356.7031,-151.61914 c 2.0136,-0.69137 64.0772,-22.16239 118.1699,-63.3457 27.4908,-20.93002 53.1708,-47.04361 67.127,-79.26367 13.9562,-32.22006 15.0615,-70.78624 -5.5977,-111.34571 -21.3372,-41.89075 -62.8647,-65.1675 -110.3242,-76.64062 -47.4595,-11.47313 -101.792,-11.847 -153.4336,-7.59375 -102.3428,8.42905 -194.0451,35.35521 -195.7168,35.84765 -0.3525,0.0802 -180.12884,40.9475 -287.27731,-42.5332 -38.20964,-29.76959 -79.83909,-39.49379 -118.54492,-38.87109 z"
         id="path12" />
    </g>
    <path
       style="fill:#b8b8b8;fill-opacity:0;stroke:#f0f0f0;stroke-width:48.48;stroke-linecap:round;stroke-linejoin:round;stroke-dasharray:145.44, 145.44;stroke-dashoffset:0;stroke-opacity:1"
       d="M 4741.9114,17326.34 V 8605.0789 c 0,0 -216.2911,-4271.8955 1613.865,-5472.3135 1830.156,-1200.4184 2063.085,-1371.9066 2063.085,-1371.9066 0,0 2162.9116,-1543.39432 3876.6036,-208.2356 1713.692,1335.1586 4475.565,673.704 4475.565,673.704 0,0 5523.743,-1629.13925 6671.75,624.7072 1148.007,2253.846 -2595.493,3540.0086 -2595.493,3540.0086 l -5360.866,2278.6892 c 0,0 -4632.937,2327.8588 -916.317,4446.9838 3716.618,2119.125 -326.02,3423.201 -326.02,3423.201"
       id="path10"
       sodipodi:nodetypes="ccscscscc" />
  </g>
</svg>
