<?xml version="1.0" encoding="UTF-8" standalone="no"?>
<svg
   width="437.64249"
   height="392.78384"
   viewBox="0 0 437.64249 392.78384"
   fill="none"
   version="1.1"
   id="svg8"
   sodipodi:docname="instrument.svg"
   xml:space="preserve"
   inkscape:version="1.4.2 (f4327f4, 2025-05-13)"
   xmlns:inkscape="http://www.inkscape.org/namespaces/inkscape"
   xmlns:sodipodi="http://sodipodi.sourceforge.net/DTD/sodipodi-0.dtd"
   xmlns="http://www.w3.org/2000/svg"
   xmlns:svg="http://www.w3.org/2000/svg"><defs
     id="defs8" /><sodipodi:namedview
     id="namedview8"
     pagecolor="#ffffff"
     bordercolor="#000000"
     borderopacity="0.25"
     inkscape:showpageshadow="2"
     inkscape:pageopacity="0.0"
     inkscape:pagecheckerboard="0"
     inkscape:deskcolor="#d1d1d1"
     inkscape:zoom="1.6341328"
     inkscape:cx="84.754435"
     inkscape:cy="249.36774"
     inkscape:window-width="3840"
     inkscape:window-height="2054"
     inkscape:window-x="-11"
     inkscape:window-y="-11"
     inkscape:window-maximized="1"
     inkscape:current-layer="svg8" /><path
     style="fill:#000000;fill-opacity:1;stroke:#000000;stroke-width:37.7953;stroke-linecap:round;stroke-linejoin:round;stroke-dasharray:75.5906, 37.7953;paint-order:stroke markers fill"
     id="path8"
     sodipodi:type="arc"
     sodipodi:cx="30.890606"
     sodipodi:cy="-307.90814"
     sodipodi:rx="199.91235"
     sodipodi:ry="199.91235"
     sodipodi:start="0"
     sodipodi:end="4.9148309"
     sodipodi:open="true"
     sodipodi:arc-type="chord"
     d="m 230.80296,-307.90814 a 199.91235,199.91235 0 0 1 -132.850675,188.32865 199.91235,199.91235 0 0 1 -221.981625,-61.97693 199.91235,199.91235 0 0 1 -16.0792,-229.90963 199.91235,199.91235 0 0 1 211.19392,-92.27194 z"
     transform="rotate(129.27001)" /><path
     style="fill:#5ca747;fill-opacity:1;stroke:#000000;stroke-width:0;stroke-linecap:round;stroke-linejoin:round;stroke-dasharray:none;stroke-dashoffset:0;paint-order:stroke markers fill"
     id="path16"
     sodipodi:type="arc"
     sodipodi:cx="21.175762"
     sodipodi:cy="-299.96527"
     sodipodi:rx="199.91235"
     sodipodi:ry="199.91235"
     sodipodi:start="0"
     sodipodi:end="4.9180166"
     sodipodi:arc-type="slice"
     d="m 221.08812,-299.96527 a 199.91235,199.91235 0 0 1 -133.00069,188.382 199.91235,199.91235 0 0 1 -222.03268,-62.2772 199.91235,199.91235 0 0 1 -15.63022,-230.07098 199.91235,199.91235 0 0 1 211.569656,-91.73463 l -40.818424,195.70081 z"
     transform="rotate(129.27001)" /><path
     style="fill:#bcbb50;fill-opacity:1;stroke:#000000;stroke-width:0;stroke-linecap:round;stroke-linejoin:round;stroke-dasharray:none;stroke-dashoffset:0;paint-order:stroke markers fill"
     id="path14"
     sodipodi:type="arc"
     sodipodi:cx="21.510723"
     sodipodi:cy="-300.2392"
     sodipodi:rx="199.91235"
     sodipodi:ry="199.91235"
     sodipodi:start="0"
     sodipodi:end="3.2052876"
     sodipodi:arc-type="slice"
     d="M 221.42308,-300.2392 A 199.91235,199.91235 0 0 1 117.76883,-125.02697 199.91235,199.91235 0 0 1 -85.704777,-131.50928 199.91235,199.91235 0 0 1 -177.99624,-312.964 l 199.506963,12.7248 z"
     transform="rotate(129.27001)" /><path
     style="fill:#a94851;fill-opacity:1;stroke:#000000;stroke-width:0;stroke-linecap:round;stroke-linejoin:round;stroke-dasharray:none;stroke-dashoffset:0;paint-order:stroke markers fill"
     id="path15"
     sodipodi:type="arc"
     sodipodi:cx="21.510723"
     sodipodi:cy="-300.2392"
     sodipodi:rx="199.91235"
     sodipodi:ry="199.91235"
     sodipodi:start="0"
     sodipodi:end="1.1214905"
     sodipodi:arc-type="slice"
     d="M 221.42308,-300.2392 A 199.91235,199.91235 0 0 1 108.34073,-120.16838 L 21.510723,-300.2392 Z"
     transform="rotate(129.27001)" /><path
     style="fill:#77eb57;fill-opacity:1;stroke:#000000;stroke-width:0;stroke-linecap:round;stroke-linejoin:round;stroke-dasharray:none;stroke-dashoffset:0;paint-order:stroke markers fill"
     id="path12"
     sodipodi:type="arc"
     sodipodi:cx="30.890606"
     sodipodi:cy="-307.90814"
     sodipodi:rx="199.91235"
     sodipodi:ry="199.91235"
     sodipodi:start="0"
     sodipodi:end="4.9180166"
     sodipodi:arc-type="slice"
     d="m 230.80296,-307.90814 a 199.91235,199.91235 0 0 1 -133.000686,188.382 199.91235,199.91235 0 0 1 -222.032684,-62.2772 199.91235,199.91235 0 0 1 -15.63021,-230.07098 199.91235,199.91235 0 0 1 211.56965,-91.73463 l -40.818424,195.70081 z"
     transform="rotate(129.27001)" /><path
     style="fill:#ebea5b;fill-opacity:1;stroke:#000000;stroke-width:0;stroke-linecap:round;stroke-linejoin:round;stroke-dasharray:none;stroke-dashoffset:0;paint-order:stroke markers fill"
     id="path11"
     sodipodi:type="arc"
     sodipodi:cx="30.890606"
     sodipodi:cy="-307.90814"
     sodipodi:rx="199.91235"
     sodipodi:ry="199.91235"
     sodipodi:start="0"
     sodipodi:end="3.2052876"
     sodipodi:arc-type="slice"
     d="m 230.80296,-307.90814 a 199.91235,199.91235 0 0 1 -103.65425,175.21223 199.91235,199.91235 0 0 1 -203.473604,-6.48231 199.91235,199.91235 0 0 1 -92.291466,-181.45472 l 199.506966,12.7248 z"
     transform="rotate(129.27001)" /><path
     style="fill:#c8be68;fill-opacity:0;stroke:#8cff6c;stroke-width:12.2;stroke-linecap:square;stroke-linejoin:miter;stroke-dasharray:none;stroke-dashoffset:0;stroke-opacity:1;paint-order:stroke markers fill"
     id="path17"
     sodipodi:type="arc"
     sodipodi:cx="33.433041"
     sodipodi:cy="-309.78632"
     sodipodi:rx="132.83006"
     sodipodi:ry="132.87933"
     sodipodi:start="0.07019386"
     sodipodi:end="4.8554662"
     sodipodi:arc-type="arc"
     d="m 165.936,-300.46666 a 132.83006,132.87933 0 0 1 -92.705677,117.45541 132.83006,132.87933 0 0 1 -143.185585,-43.34938 132.83006,132.87933 0 0 1 -12.04517,-149.1687 132.83006,132.87933 0 0 1 134.373653,-65.77855"
     transform="matrix(-0.63368374,0.77359222,-0.77475018,-0.63226747,0,0)"
     sodipodi:open="true" /><path
     style="fill:#eb5764;fill-opacity:1;stroke:#000000;stroke-width:0;stroke-linecap:round;stroke-linejoin:round;stroke-dasharray:none;stroke-dashoffset:0;paint-order:stroke markers fill"
     id="path10"
     sodipodi:type="arc"
     sodipodi:cx="30.890606"
     sodipodi:cy="-307.90814"
     sodipodi:rx="199.91235"
     sodipodi:ry="199.91235"
     sodipodi:start="0"
     sodipodi:end="1.0863717"
     sodipodi:arc-type="slice"
     d="M 230.80296,-307.90814 A 199.91235,199.91235 0 0 1 123.98964,-130.99709 L 30.890606,-307.90814 Z"
     transform="rotate(129.27001)" /><path
     style="fill:#f4e77f;fill-opacity:0;stroke:#fffe6d;stroke-width:12.2;stroke-linecap:square;stroke-linejoin:miter;stroke-dasharray:none;stroke-dashoffset:0;stroke-opacity:1;paint-order:stroke markers fill"
     id="path18"
     sodipodi:type="arc"
     sodipodi:cx="33.433041"
     sodipodi:cy="-309.78632"
     sodipodi:rx="132.83006"
     sodipodi:ry="132.87933"
     sodipodi:start="0.065633423"
     sodipodi:end="3.1459756"
     sodipodi:arc-type="arc"
     d="M 165.97711,-301.07125 A 132.83006,132.87933 0 0 1 28.783851,-176.9884 132.83006,132.87933 0 0 1 -99.395746,-310.36872"
     transform="matrix(-0.63368374,0.77359222,-0.77475018,-0.63226747,0,0)"
     sodipodi:open="true" /><path
     style="fill:#ffffff;fill-opacity:0;stroke:#000000;stroke-width:7.09501;stroke-linecap:round;stroke-linejoin:round;stroke-dasharray:7.09501, 85.1401;stroke-dashoffset:100.749;paint-order:stroke markers fill"
     id="path9"
     sodipodi:type="arc"
     sodipodi:cx="28.554691"
     sodipodi:cy="-305.79013"
     sodipodi:rx="169.82556"
     sodipodi:ry="169.8904"
     sodipodi:start="0"
     sodipodi:end="4.9148309"
     sodipodi:open="true"
     sodipodi:arc-type="chord"
     d="M 198.38025,-305.79013 A 169.82556,169.8904 0 0 1 85.523593,-145.74385 169.82556,169.8904 0 0 1 -103.04982,-198.41335 169.82556,169.8904 0 0 1 -116.7091,-393.79617 169.82556,169.8904 0 0 1 62.700155,-472.21111 Z"
     transform="matrix(-0.63370443,0.77357526,-0.77476708,-0.63224676,0,0)" /><path
     style="fill:#c8be68;fill-opacity:0;stroke:#ff6d7a;stroke-width:12.2;stroke-linecap:square;stroke-linejoin:miter;stroke-dasharray:none;stroke-dashoffset:0;stroke-opacity:1;paint-order:stroke markers fill"
     id="path19"
     sodipodi:type="arc"
     sodipodi:cx="33.433041"
     sodipodi:cy="-309.78632"
     sodipodi:rx="132.83006"
     sodipodi:ry="132.87933"
     sodipodi:start="0.058554735"
     sodipodi:end="1.0627199"
     sodipodi:arc-type="arc"
     d="M 166.03545,-302.01005 A 132.83006,132.87933 0 0 1 98.054542,-193.69204"
     transform="matrix(-0.63368374,0.77359222,-0.77475018,-0.63226747,0,0)"
     sodipodi:open="true" /><circle
     style="fill:#4e4f95;fill-opacity:1;stroke:#000000;stroke-width:0;stroke-linecap:round;stroke-linejoin:round;stroke-dasharray:none;stroke-dashoffset:0;paint-order:stroke markers fill"
     id="circle13"
     transform="rotate(129.27001)"
     cx="25.897442"
     cy="-307.17914"
     r="26.828062" /><circle
     style="fill:#0f1045;fill-opacity:1;stroke:#000000;stroke-width:0;stroke-linecap:round;stroke-linejoin:round;stroke-dasharray:none;stroke-dashoffset:0;paint-order:stroke markers fill"
     id="path13"
     transform="rotate(129.27001)"
     cx="32.201153"
     cy="-311.77435"
     r="26.828062" /></svg>
