<?xml version="1.0" encoding="UTF-8" standalone="no"?>
<svg
   width="470.06006"
   height="258.36081"
   viewBox="0 0 470.06006 258.36081"
   fill="none"
   version="1.1"
   id="svg8"
   sodipodi:docname="instrumenttutorial2.svg"
   xml:space="preserve"
   inkscape:version="1.4.2 (f4327f4, 2025-05-13)"
   xmlns:inkscape="http://www.inkscape.org/namespaces/inkscape"
   xmlns:sodipodi="http://sodipodi.sourceforge.net/DTD/sodipodi-0.dtd"
   xmlns="http://www.w3.org/2000/svg"
   xmlns:svg="http://www.w3.org/2000/svg"><defs
     id="defs8" /><sodipodi:namedview
     id="namedview8"
     pagecolor="#ffffff"
     bordercolor="#000000"
     borderopacity="0.25"
     inkscape:showpageshadow="2"
     inkscape:pageopacity="0.0"
     inkscape:pagecheckerboard="0"
     inkscape:deskcolor="#d1d1d1"
     inkscape:zoom="3.2682656"
     inkscape:cx="163.23643"
     inkscape:cy="142.43028"
     inkscape:window-width="3840"
     inkscape:window-height="2054"
     inkscape:window-x="-11"
     inkscape:window-y="-11"
     inkscape:window-maximized="1"
     inkscape:current-layer="svg8" /><path
     style="fill:#000000;fill-opacity:1;stroke:#000000;stroke-width:37.7954;stroke-linecap:round;stroke-linejoin:round;stroke-dasharray:75.5907, 37.7954;paint-order:stroke markers fill"
     id="path8"
     sodipodi:type="arc"
     sodipodi:cx="-106.60325"
     sodipodi:cy="-344.27307"
     sodipodi:rx="116.3387"
     sodipodi:ry="116.42194"
     sodipodi:start="0"
     sodipodi:end="4.9148309"
     sodipodi:open="true"
     sodipodi:arc-type="chord"
     d="m 9.7354507,-344.27307 a 116.3387,116.42194 0 0 1 -77.3122537,109.676 116.3387,116.42194 0 0 1 -129.181877,-36.09319 116.3387,116.42194 0 0 1 -9.35727,-133.89131 116.3387,116.42194 0 0 1 122.903991,-53.73594 z"
     transform="matrix(-0.63434098,0.77305337,-0.77528668,-0.6316095,0,0)" /><path
     style="fill:#a94851;fill-opacity:1;stroke:#000000;stroke-width:0;stroke-linecap:round;stroke-linejoin:round;stroke-dasharray:none;stroke-dashoffset:0;paint-order:stroke markers fill"
     id="path15"
     sodipodi:type="arc"
     sodipodi:cx="-112.06186"
     sodipodi:cy="-339.80695"
     sodipodi:rx="116.3387"
     sodipodi:ry="116.42194"
     sodipodi:start="0"
     sodipodi:end="1.1214905"
     sodipodi:arc-type="slice"
     d="M 4.2768402,-339.80695 A 116.3387,116.42194 0 0 1 -61.531266,-234.94002 L -112.06186,-339.80695 Z"
     transform="matrix(-0.63434098,0.77305337,-0.77528668,-0.6316095,0,0)" /><path
     style="fill:#3d5337;fill-opacity:1;stroke:#000000;stroke-width:0;stroke-linecap:round;stroke-linejoin:round;stroke-dasharray:none;stroke-dashoffset:0;paint-order:stroke markers fill"
     id="path12"
     sodipodi:type="arc"
     sodipodi:cx="-106.60325"
     sodipodi:cy="-344.27307"
     sodipodi:rx="116.3387"
     sodipodi:ry="116.42194"
     sodipodi:start="0"
     sodipodi:end="4.9180166"
     sodipodi:arc-type="slice"
     d="m 9.7354507,-344.27307 a 116.3387,116.42194 0 0 1 -77.3995527,109.70707 116.3387,116.42194 0 0 1 -129.211588,-36.26806 116.3387,116.42194 0 0 1 -9.09599,-133.98527 116.3387,116.42194 0 0 1 123.122653,-53.42303 l -23.754223,113.96929 z"
     transform="matrix(-0.63434098,0.77305337,-0.77528668,-0.6316095,0,0)" /><path
     id="path7"
     style="fill:#ffff6d;fill-opacity:1;stroke:#d5d5d5;stroke-width:0;stroke-linecap:round;stroke-linejoin:round;stroke-dasharray:none;stroke-opacity:1;paint-order:stroke markers fill"
     sodipodi:type="inkscape:offset"
     inkscape:radius="11.250479"
     inkscape:original="M 327.75781 20.451172 A 111.42301 113.15385 0 0 0 298.72852 25.742188 A 111.42301 113.15385 0 0 0 223.52148 111.17188 L 332.75391 133.49219 L 408.83398 50.820312 A 111.42301 113.15385 0 0 0 327.75781 20.451172 z "
     d="m 327.24609,9.2128906 c -10.85998,0.4949578 -21.6544,2.4621934 -32.00195,5.8320314 -41.39043,13.480396 -74.21555,50.824025 -82.75781,93.941408 a 11.251604,11.251604 0 0 0 8.7832,13.20898 l 109.23242,22.32031 a 11.251604,11.251604 0 0 0 10.53125,-3.40429 L 417.11328,58.439453 A 11.251604,11.251604 0 0 0 416.57812,42.660156 C 392.79779,20.090641 359.827,7.7276538 327.24609,9.2128906 Z" /><path
     style="fill:#dddd47;fill-opacity:1;stroke:#000000;stroke-width:0;stroke-linecap:round;stroke-linejoin:round;stroke-dasharray:none;stroke-dashoffset:0;paint-order:stroke markers fill"
     id="path11"
     sodipodi:type="arc"
     sodipodi:cx="-106.60325"
     sodipodi:cy="-344.27307"
     sodipodi:rx="116.3387"
     sodipodi:ry="116.42194"
     sodipodi:start="0"
     sodipodi:end="3.2052876"
     sodipodi:arc-type="slice"
     d="m 9.7354507,-344.27307 a 116.3387,116.42194 0 0 1 -60.3214357,102.03746 116.3387,116.42194 0 0 1 -118.411165,-3.77507 116.3387,116.42194 0 0 1 -53.70888,-105.67287 l 116.10278,7.41048 z"
     transform="matrix(-0.63434098,0.77305337,-0.77528668,-0.6316095,0,0)" /><path
     style="fill:#c8be68;fill-opacity:0;stroke:#353f32;stroke-width:12.2001;stroke-linecap:square;stroke-linejoin:miter;stroke-dasharray:none;stroke-dashoffset:0;stroke-opacity:1;paint-order:stroke markers fill"
     id="path17"
     sodipodi:type="arc"
     sodipodi:cx="-104.97343"
     sodipodi:cy="-345.25409"
     sodipodi:rx="77.300507"
     sodipodi:ry="77.384514"
     sodipodi:start="0.07019386"
     sodipodi:end="4.8554662"
     sodipodi:arc-type="arc"
     d="m -27.863279,-339.82663 a 77.300507,77.384514 0 0 1 -53.950104,68.40213 77.300507,77.384514 0 0 1 -83.326907,-25.24524 77.300507,77.384514 0 0 1 -7.00969,-86.8709 77.300507,77.384514 0 0 1 78.198798,-38.30724"
     transform="matrix(-0.63504846,0.7724723,-0.77586357,-0.63090072,0,0)"
     sodipodi:open="true" /><path
     style="fill:#662c31;fill-opacity:1;stroke:#000000;stroke-width:0;stroke-linecap:round;stroke-linejoin:round;stroke-dasharray:none;stroke-dashoffset:0;paint-order:stroke markers fill"
     id="path10"
     sodipodi:type="arc"
     sodipodi:cx="-106.60325"
     sodipodi:cy="-344.27307"
     sodipodi:rx="116.3387"
     sodipodi:ry="116.42194"
     sodipodi:start="0"
     sodipodi:end="1.0863717"
     sodipodi:arc-type="slice"
     d="M 9.7354507,-344.27307 A 116.3387,116.42194 0 0 1 -52.424402,-241.24628 L -106.60325,-344.27307 Z"
     transform="matrix(-0.63434098,0.77305337,-0.77528668,-0.6316095,0,0)" /><path
     style="fill:#37362e;fill-opacity:0;stroke:#f1f17b;stroke-width:12.2001;stroke-linecap:square;stroke-linejoin:miter;stroke-dasharray:none;stroke-dashoffset:0;stroke-opacity:1;paint-order:stroke markers fill"
     id="path18"
     sodipodi:type="arc"
     sodipodi:cx="-104.97343"
     sodipodi:cy="-345.25409"
     sodipodi:rx="77.300507"
     sodipodi:ry="77.384514"
     sodipodi:start="0.065633423"
     sodipodi:end="3.1459756"
     sodipodi:arc-type="arc"
     d="m -27.839356,-340.17872 a 77.300507,77.384514 0 0 1 -79.839664,72.26173 77.300507,77.384514 0 0 1 -74.59417,-77.67627"
     transform="matrix(-0.63504846,0.7724723,-0.77586357,-0.63090072,0,0)"
     sodipodi:open="true" /><path
     style="fill:#3e435e;fill-opacity:1;stroke:#000000;stroke-width:0;stroke-linecap:round;stroke-linejoin:round;stroke-dasharray:none;stroke-dashoffset:0;paint-order:stroke markers fill"
     id="path1"
     sodipodi:type="arc"
     sodipodi:cx="-106.60325"
     sodipodi:cy="-344.27307"
     sodipodi:rx="116.3387"
     sodipodi:ry="116.42194"
     sodipodi:start="4.7033371"
     sodipodi:end="4.9180166"
     sodipodi:arc-type="slice"
     d="m -107.65632,-460.69025 a 116.3387,116.42194 0 0 1 24.807293,2.44789 l -23.754223,113.96929 z"
     transform="matrix(-0.63434098,0.77305337,-0.77528668,-0.6316095,0,0)" /><path
     style="fill:#ffffff;fill-opacity:0;stroke:#000000;stroke-width:7.09506;stroke-linecap:round;stroke-linejoin:round;stroke-dasharray:7.09506, 85.1407;stroke-dashoffset:100.75;paint-order:stroke markers fill"
     id="path9"
     sodipodi:type="arc"
     sodipodi:cx="-107.808"
     sodipodi:cy="-342.92355"
     sodipodi:rx="98.830063"
     sodipodi:ry="98.938538"
     sodipodi:start="0"
     sodipodi:end="4.9148309"
     sodipodi:open="true"
     sodipodi:arc-type="chord"
     d="m -8.9779358,-342.92355 a 98.830063,98.938538 0 0 1 -65.6769842,93.20565 98.830063,98.938538 0 0 1 -109.74038,-30.67297 98.830063,98.938538 0 0 1 -7.94903,-113.78449 98.830063,98.938538 0 0 1 104.407299,-45.66626 z"
     transform="matrix(-0.63506915,0.77245529,-0.77588042,-0.63088,0,0)" /><path
     style="fill:#59542e;fill-opacity:0;stroke:#50292c;stroke-width:12.2001;stroke-linecap:square;stroke-linejoin:miter;stroke-dasharray:none;stroke-dashoffset:0;stroke-opacity:1;paint-order:stroke markers fill"
     id="path19"
     sodipodi:type="arc"
     sodipodi:cx="-104.97343"
     sodipodi:cy="-345.25409"
     sodipodi:rx="77.300507"
     sodipodi:ry="77.384514"
     sodipodi:start="0.058554735"
     sodipodi:end="1.0627199"
     sodipodi:arc-type="arc"
     d="m -27.805401,-340.72545 a 77.300507,77.384514 0 0 1 -39.561518,63.08081"
     transform="matrix(-0.63504846,0.7724723,-0.77586357,-0.63090072,0,0)"
     sodipodi:open="true" /><ellipse
     style="fill:#4e4f95;fill-opacity:1;stroke:#000000;stroke-width:0;stroke-linecap:round;stroke-linejoin:round;stroke-dasharray:none;stroke-dashoffset:0;paint-order:stroke markers fill"
     id="circle13"
     transform="matrix(-0.63434098,0.77305337,-0.77528668,-0.6316095,0,0)"
     cx="-109.50901"
     cy="-343.84851"
     rx="15.612551"
     ry="15.623722" /><ellipse
     style="fill:#0f1045;fill-opacity:1;stroke:#000000;stroke-width:0;stroke-linecap:round;stroke-linejoin:round;stroke-dasharray:none;stroke-dashoffset:0;paint-order:stroke markers fill"
     id="path13"
     transform="matrix(-0.63434098,0.77305337,-0.77528668,-0.6316095,0,0)"
     cx="-105.84058"
     cy="-346.5246"
     rx="15.612551"
     ry="15.623722" /><path
     style="fill:#ffffff;fill-opacity:0;stroke:#ffffff;stroke-width:21.765;stroke-linecap:round;stroke-linejoin:round;stroke-dasharray:none;stroke-opacity:1;paint-order:stroke markers fill"
     d="m 114.53686,243.58435 c 0,0 40.37513,-56.81759 21.49233,-85.07378 -30.77284,-46.04841 -34.05241,26.06822 -72.374508,14.00204 -34.376458,-10.82384 7.533132,-65.17218 7.533132,-65.17218"
     id="path5"
     sodipodi:nodetypes="cssc" /><path
     sodipodi:type="star"
     style="fill:#ffffff;fill-opacity:1;stroke:#ffffff;stroke-width:21.765;stroke-linecap:round;stroke-linejoin:round;stroke-dasharray:none;stroke-opacity:1;paint-order:stroke markers fill"
     id="path6"
     inkscape:flatsided="true"
     sodipodi:sides="3"
     sodipodi:cx="90.720901"
     sodipodi:cy="215.86372"
     sodipodi:r1="35.420219"
     sodipodi:r2="17.71011"
     sodipodi:arg1="2.1156602"
     sodipodi:arg2="3.1628578"
     inkscape:rounded="1.0408341e-17"
     inkscape:randomized="2.7755576e-17"
     d="m 72.362542,246.15502 1.304508,-61.33575 52.46606,31.79761 z"
     inkscape:transform-center-x="8.5269266"
     inkscape:transform-center-y="-0.37657959"
     transform="matrix(-1,0,0,1,167.91775,-126.7163)" /></svg>
