<?xml version="1.0" encoding="UTF-8" standalone="no"?>
<svg
   width="470.06006"
   height="258.36081"
   viewBox="0 0 470.06006 258.36081"
   fill="none"
   version="1.1"
   id="svg8"
   sodipodi:docname="instrumenttutorial3.svg"
   xml:space="preserve"
   inkscape:version="1.4.2 (f4327f4, 2025-05-13)"
   xmlns:inkscape="http://www.inkscape.org/namespaces/inkscape"
   xmlns:sodipodi="http://sodipodi.sourceforge.net/DTD/sodipodi-0.dtd"
   xmlns="http://www.w3.org/2000/svg"
   xmlns:svg="http://www.w3.org/2000/svg"><defs
     id="defs8" /><sodipodi:namedview
     id="namedview8"
     pagecolor="#ffffff"
     bordercolor="#000000"
     borderopacity="0.25"
     inkscape:showpageshadow="2"
     inkscape:pageopacity="0.0"
     inkscape:pagecheckerboard="0"
     inkscape:deskcolor="#d1d1d1"
     inkscape:zoom="1.1555064"
     inkscape:cx="281.69468"
     inkscape:cy="292.94516"
     inkscape:window-width="3840"
     inkscape:window-height="2054"
     inkscape:window-x="-11"
     inkscape:window-y="-11"
     inkscape:window-maximized="1"
     inkscape:current-layer="svg8" /><path
     style="fill:#000000;fill-opacity:1;stroke:#000000;stroke-width:37.7954;stroke-linecap:round;stroke-linejoin:round;stroke-dasharray:75.5907, 37.7954;paint-order:stroke markers fill"
     id="path8"
     sodipodi:type="arc"
     sodipodi:cx="-106.60325"
     sodipodi:cy="-344.27307"
     sodipodi:rx="116.3387"
     sodipodi:ry="116.42194"
     sodipodi:start="0"
     sodipodi:end="4.9148309"
     sodipodi:open="true"
     sodipodi:arc-type="chord"
     d="m 9.7354507,-344.27307 a 116.3387,116.42194 0 0 1 -77.3122537,109.676 116.3387,116.42194 0 0 1 -129.181877,-36.09319 116.3387,116.42194 0 0 1 -9.35727,-133.89131 116.3387,116.42194 0 0 1 122.903991,-53.73594 z"
     transform="matrix(-0.63434098,0.77305337,-0.77528668,-0.6316095,0,0)" /><path
     style="fill:#a94851;fill-opacity:1;stroke:#000000;stroke-width:0;stroke-linecap:round;stroke-linejoin:round;stroke-dasharray:none;stroke-dashoffset:0;paint-order:stroke markers fill"
     id="path15"
     sodipodi:type="arc"
     sodipodi:cx="-112.06186"
     sodipodi:cy="-339.80695"
     sodipodi:rx="116.3387"
     sodipodi:ry="116.42194"
     sodipodi:start="0"
     sodipodi:end="1.1214905"
     sodipodi:arc-type="slice"
     d="M 4.2768402,-339.80695 A 116.3387,116.42194 0 0 1 -61.531266,-234.94002 L -112.06186,-339.80695 Z"
     transform="matrix(-0.63434098,0.77305337,-0.77528668,-0.6316095,0,0)" /><path
     style="fill:#3d5337;fill-opacity:1;stroke:#000000;stroke-width:0;stroke-linecap:round;stroke-linejoin:round;stroke-dasharray:none;stroke-dashoffset:0;paint-order:stroke markers fill"
     id="path12"
     sodipodi:type="arc"
     sodipodi:cx="-106.60325"
     sodipodi:cy="-344.27307"
     sodipodi:rx="116.3387"
     sodipodi:ry="116.42194"
     sodipodi:start="0"
     sodipodi:end="4.9180166"
     sodipodi:arc-type="slice"
     d="m 9.7354507,-344.27307 a 116.3387,116.42194 0 0 1 -77.3995527,109.70707 116.3387,116.42194 0 0 1 -129.211588,-36.26806 116.3387,116.42194 0 0 1 -9.09599,-133.98527 116.3387,116.42194 0 0 1 123.122653,-53.42303 l -23.754223,113.96929 z"
     transform="matrix(-0.63434098,0.77305337,-0.77528668,-0.6316095,0,0)" /><path
     style="fill:#52523d;fill-opacity:1;stroke:#000000;stroke-width:0;stroke-linecap:round;stroke-linejoin:round;stroke-dasharray:none;stroke-dashoffset:0;paint-order:stroke markers fill"
     id="path11"
     sodipodi:type="arc"
     sodipodi:cx="-106.60325"
     sodipodi:cy="-344.27307"
     sodipodi:rx="116.3387"
     sodipodi:ry="116.42194"
     sodipodi:start="0"
     sodipodi:end="3.2052876"
     sodipodi:arc-type="slice"
     d="m 9.7354507,-344.27307 a 116.3387,116.42194 0 0 1 -60.3214357,102.03746 116.3387,116.42194 0 0 1 -118.411165,-3.77507 116.3387,116.42194 0 0 1 -53.70888,-105.67287 l 116.10278,7.41048 z"
     transform="matrix(-0.63434098,0.77305337,-0.77528668,-0.6316095,0,0)" /><path
     style="fill:#c8be68;fill-opacity:0;stroke:#353f32;stroke-width:12.2001;stroke-linecap:square;stroke-linejoin:miter;stroke-dasharray:none;stroke-dashoffset:0;stroke-opacity:1;paint-order:stroke markers fill"
     id="path17"
     sodipodi:type="arc"
     sodipodi:cx="-104.97343"
     sodipodi:cy="-345.25409"
     sodipodi:rx="77.300507"
     sodipodi:ry="77.384514"
     sodipodi:start="0.07019386"
     sodipodi:end="4.8554662"
     sodipodi:arc-type="arc"
     d="m -27.863279,-339.82663 a 77.300507,77.384514 0 0 1 -53.950104,68.40213 77.300507,77.384514 0 0 1 -83.326907,-25.24524 77.300507,77.384514 0 0 1 -7.00969,-86.8709 77.300507,77.384514 0 0 1 78.198798,-38.30724"
     transform="matrix(-0.63504846,0.7724723,-0.77586357,-0.63090072,0,0)"
     sodipodi:open="true" /><path
     style="fill:#662c31;fill-opacity:1;stroke:#000000;stroke-width:0;stroke-linecap:round;stroke-linejoin:round;stroke-dasharray:none;stroke-dashoffset:0;paint-order:stroke markers fill"
     id="path10"
     sodipodi:type="arc"
     sodipodi:cx="-106.60325"
     sodipodi:cy="-344.27307"
     sodipodi:rx="116.3387"
     sodipodi:ry="116.42194"
     sodipodi:start="0"
     sodipodi:end="1.0863717"
     sodipodi:arc-type="slice"
     d="M 9.7354507,-344.27307 A 116.3387,116.42194 0 0 1 -52.424402,-241.24628 L -106.60325,-344.27307 Z"
     transform="matrix(-0.63434098,0.77305337,-0.77528668,-0.6316095,0,0)" /><path
     style="fill:#37362e;fill-opacity:0;stroke:#3b3a32;stroke-width:12.2001;stroke-linecap:square;stroke-linejoin:miter;stroke-dasharray:none;stroke-dashoffset:0;stroke-opacity:1;paint-order:stroke markers fill"
     id="path18"
     sodipodi:type="arc"
     sodipodi:cx="-104.97343"
     sodipodi:cy="-345.25409"
     sodipodi:rx="77.300507"
     sodipodi:ry="77.384514"
     sodipodi:start="0.065633423"
     sodipodi:end="3.1459756"
     sodipodi:arc-type="arc"
     d="m -27.839356,-340.17872 a 77.300507,77.384514 0 0 1 -79.839664,72.26173 77.300507,77.384514 0 0 1 -74.59417,-77.67627"
     transform="matrix(-0.63504846,0.7724723,-0.77586357,-0.63090072,0,0)"
     sodipodi:open="true" /><path
     id="path7"
     style="fill:#c9d2ff;stroke:#000000;stroke-width:0;stroke-linecap:round;stroke-linejoin:round;paint-order:stroke markers fill;fill-opacity:1"
     sodipodi:type="inkscape:offset"
     inkscape:radius="10.247343"
     inkscape:original="M -107.65625 -460.68945 L -106.60352 -344.27344 L -82.849609 -458.24219 A 116.3387 116.42194 0 0 0 -107.65625 -460.68945 z "
     d="m -107.75,-470.93555 a 10.248368,10.248368 0 0 0 -10.15234,10.33789 l 1.05273,116.41602 a 10.248368,10.248368 0 0 0 20.277344,2 l 23.753907,-113.96875 a 10.248368,10.248368 0 0 0 -7.9375,-12.12305 c -8.867885,-1.85071 -17.935772,-2.74434 -26.994141,-2.66211 z"
     transform="matrix(-0.63434098,0.77305337,-0.77528668,-0.6316095,0,0)" /><path
     style="fill:#5168e9;fill-opacity:1;stroke:#000000;stroke-width:0;stroke-linecap:round;stroke-linejoin:round;stroke-dasharray:none;stroke-dashoffset:0;paint-order:stroke markers fill"
     id="path1"
     sodipodi:type="arc"
     sodipodi:cx="-106.60325"
     sodipodi:cy="-344.27307"
     sodipodi:rx="116.3387"
     sodipodi:ry="116.42194"
     sodipodi:start="4.7033371"
     sodipodi:end="4.9180166"
     sodipodi:arc-type="slice"
     d="m -107.65632,-460.69025 a 116.3387,116.42194 0 0 1 24.807293,2.44789 l -23.754223,113.96929 z"
     transform="matrix(-0.63434098,0.77305337,-0.77528668,-0.6316095,0,0)" /><path
     style="fill:#ffffff;fill-opacity:0;stroke:#000000;stroke-width:7.09506;stroke-linecap:round;stroke-linejoin:round;stroke-dasharray:7.09506, 85.1407;stroke-dashoffset:100.75;paint-order:stroke markers fill"
     id="path9"
     sodipodi:type="arc"
     sodipodi:cx="-107.808"
     sodipodi:cy="-342.92355"
     sodipodi:rx="98.830063"
     sodipodi:ry="98.938538"
     sodipodi:start="0"
     sodipodi:end="4.9148309"
     sodipodi:open="true"
     sodipodi:arc-type="chord"
     d="m -8.9779358,-342.92355 a 98.830063,98.938538 0 0 1 -65.6769842,93.20565 98.830063,98.938538 0 0 1 -109.74038,-30.67297 98.830063,98.938538 0 0 1 -7.94903,-113.78449 98.830063,98.938538 0 0 1 104.407299,-45.66626 z"
     transform="matrix(-0.63506915,0.77245529,-0.77588042,-0.63088,0,0)" /><path
     style="fill:#59542e;fill-opacity:0;stroke:#50292c;stroke-width:12.2001;stroke-linecap:square;stroke-linejoin:miter;stroke-dasharray:none;stroke-dashoffset:0;stroke-opacity:1;paint-order:stroke markers fill"
     id="path19"
     sodipodi:type="arc"
     sodipodi:cx="-104.97343"
     sodipodi:cy="-345.25409"
     sodipodi:rx="77.300507"
     sodipodi:ry="77.384514"
     sodipodi:start="0.058554735"
     sodipodi:end="1.0627199"
     sodipodi:arc-type="arc"
     d="m -27.805401,-340.72545 a 77.300507,77.384514 0 0 1 -39.561518,63.08081"
     transform="matrix(-0.63504846,0.7724723,-0.77586357,-0.63090072,0,0)"
     sodipodi:open="true" /><ellipse
     style="fill:#4e4f95;fill-opacity:1;stroke:#000000;stroke-width:0;stroke-linecap:round;stroke-linejoin:round;stroke-dasharray:none;stroke-dashoffset:0;paint-order:stroke markers fill"
     id="circle13"
     transform="matrix(-0.63434098,0.77305337,-0.77528668,-0.6316095,0,0)"
     cx="-109.50901"
     cy="-343.84851"
     rx="15.612551"
     ry="15.623722" /><ellipse
     style="fill:#0f1045;fill-opacity:1;stroke:#000000;stroke-width:0;stroke-linecap:round;stroke-linejoin:round;stroke-dasharray:none;stroke-dashoffset:0;paint-order:stroke markers fill"
     id="path13"
     transform="matrix(-0.63434098,0.77305337,-0.77528668,-0.6316095,0,0)"
     cx="-105.84058"
     cy="-346.5246"
     rx="15.612551"
     ry="15.623722" /></svg>
